# VPXTOOL table OBJ file
# VPXTOOL OBJ file
# numVerts: 109 numFaces: 576
o Primitive47
v -0 0.26029399037361145 -0.484499990940094
v -0 0.0037499999161809683 -0.484499990940094
v 0.12539799511432648 0.0037499999161809683 -0.4679909944534302
v 0.12509199976921082 0.2515459954738617 -0.4679909944534302
v 0.242249995470047 0.0037499999161809683 -0.41958901286125183
v 0.2416599988937378 0.24339500069618225 -0.41958901286125183
v 0.3425930142402649 0.0037499999161809683 -0.3425930142402649
v 0.34175899624824524 0.23639599978923798 -0.3425930142402649
v 0.41958901286125183 0.0037499999161809683 -0.242249995470047
v 0.4185670018196106 0.23102499544620514 -0.242249995470047
v 0.4679909944534302 0.0037499999161809683 -0.12539799511432648
v 0.46685099601745605 0.22764800488948822 -0.12539799511432648
v 0.484499990940094 0.0037499999161809683 0
v 0.4833199977874756 0.22649699449539185 0
v 0.4679909944534302 0.0037499999161809683 0.12539799511432648
v 0.46685099601745605 0.22764800488948822 0.12539799511432648
v 0.41958901286125183 0.0037499999161809683 0.242249995470047
v 0.4185670018196106 0.23102499544620514 0.242249995470047
v 0.3425930142402649 0.0037499999161809683 0.3425930142402649
v 0.34175899624824524 0.23639599978923798 0.3425930142402649
v 0.242249995470047 0.0037499999161809683 0.41958901286125183
v 0.2416599988937378 0.24339500069618225 0.41958901286125183
v 0.12539799511432648 0.0037499999161809683 0.4679909944534302
v 0.12509199976921082 0.2515459954738617 0.4679909944534302
v -0 0.0037499999161809683 0.484499990940094
v -0 0.26029399037361145 0.484499990940094
v -0.12539799511432648 0.0037499999161809683 0.4679909944534302
v -0.12509199976921082 0.2690410017967224 0.4679909944534302
v -0.242249995470047 0.0037499999161809683 0.41958901286125183
v -0.2416599988937378 0.27719199657440186 0.41958901286125183
v -0.3425930142402649 0.0037499999161809683 0.3425930142402649
v -0.34175899624824524 0.2841919958591461 0.3425930142402649
v -0.41958901286125183 0.0037499999161809683 0.242249995470047
v -0.4185670018196106 0.28956300020217896 0.242249995470047
v -0.4679909944534302 0.0037499999161809683 0.12539799511432648
v -0.46685099601745605 0.2929390072822571 0.12539799511432648
v -0.484499990940094 0.0037499999161809683 0
v -0.4833199977874756 0.29409098625183105 0
v -0.4679909944534302 0.0037499999161809683 -0.12539799511432648
v -0.46685099601745605 0.2929390072822571 -0.12539799511432648
v -0.41958901286125183 0.0037499999161809683 -0.242249995470047
v -0.4185670018196106 0.28956300020217896 -0.242249995470047
v -0.3425930142402649 0.0037499999161809683 -0.3425930142402649
v -0.34175899624824524 0.2841919958591461 -0.3425930142402649
v -0.242249995470047 0.0037499999161809683 -0.41958901286125183
v -0.2416599988937378 0.27719199657440186 -0.41958901286125183
v -0.12539799511432648 0.0037499999161809683 -0.4679909944534302
v -0.12509199976921082 0.2690410017967224 -0.4679909944534302
v 0.0018720000516623259 0.2870590090751648 -0.4733310043811798
v 0.12408000230789185 0.27851301431655884 -0.4572019875049591
v 0.23795999586582184 0.270550012588501 -0.4099160134792328
v 0.335752010345459 0.26371198892593384 -0.3346950113773346
v 0.41078901290893555 0.2584649920463562 -0.23666499555110931
v 0.45796000957489014 0.2551659941673279 -0.1225069984793663
v 0.47404900193214417 0.25404098629951477 0
v 0.45796000957489014 0.2551659941673279 0.1225069984793663
v 0.41078901290893555 0.2584649920463562 0.23666499555110931
v 0.335752010345459 0.26371198892593384 0.3346950113773346
v 0.23795999586582184 0.270550012588501 0.4099160134792328
v 0.12408000230789185 0.27851301431655884 0.4572019875049591
v 0.0018720000516623259 0.2870590090751648 0.4733310043811798
v -0.12033700197935104 0.29560500383377075 0.4572019875049591
v -0.23421700298786163 0.3035680055618286 0.4099160134792328
v -0.3320080041885376 0.31040599942207336 0.3346950113773346
v -0.40704599022865295 0.315652996301651 0.23666499555110931
v -0.45421698689460754 0.3189519941806793 0.1225069984793663
v -0.47030600905418396 0.32007700204849243 0
v -0.45421698689460754 0.3189519941806793 -0.1225069984793663
v -0.40704599022865295 0.315652996301651 -0.23666499555110931
v -0.3320080041885376 0.31040599942207336 -0.3346950113773346
v -0.23421700298786163 0.3035680055618286 -0.4099160134792328
v -0.12033700197935104 0.29560500383377075 -0.4572019875049591
v 0.002650999929755926 0.2982009947299957 -0.4465000033378601
v 0.11793199926614761 0.2901400029659271 -0.4312860071659088
v 0.22535699605941772 0.28262799978256226 -0.386680006980896
v 0.31760498881340027 0.27617698907852173 -0.3157230019569397
v 0.388388991355896 0.27122798562049866 -0.22325000166893005
v 0.432886004447937 0.2681159973144531 -0.11556299775838852
v 0.4480629861354828 0.2670550048351288 0
v 0.432886004447937 0.2681159973144531 0.11556299775838852
v 0.388388991355896 0.27122798562049866 0.22325000166893005
v 0.31760498881340027 0.27617698907852173 0.3157230019569397
v 0.22535699605941772 0.28262799978256226 0.386680006980896
v 0.11793199926614761 0.2901400029659271 0.4312860071659088
v 0.002650999929755926 0.2982009947299957 0.4465000033378601
v -0.11263000220060349 0.30626198649406433 0.4312860071659088
v -0.2200549989938736 0.3137739896774292 0.386680006980896
v -0.31230300664901733 0.3202250003814697 0.3157230019569397
v -0.38308799266815186 0.3251749873161316 0.22325000166893005
v -0.4275839924812317 0.32828599214553833 0.11556299775838852
v -0.44276198744773865 0.32934701442718506 0
v -0.4275839924812317 0.32828599214553833 -0.11556299775838852
v -0.38308799266815186 0.3251749873161316 -0.22325000166893005
v -0.31230300664901733 0.3202250003814697 -0.3157230019569397
v -0.2200549989938736 0.3137739896774292 -0.386680006980896
v -0.11263000220060349 0.30626198649406433 -0.4312860071659088
v 0.00430699996650219 0.32189300656318665 -0.34200000762939453
v 0.17489099502563477 0.30996501445770264 -0.29618099331855774
v 0.29976698756217957 0.3012329936027527 -0.17100000381469727
v 0.3454740047454834 0.29803699254989624 0
v 0.29976698756217957 0.3012329936027527 0.17100000381469727
v 0.17489099502563477 0.30996501445770264 0.29618099331855774
v 0.00430699996650219 0.32189300656318665 0.34200000762939453
v -0.1662759929895401 0.33382201194763184 0.29618099331855774
v -0.2911520004272461 0.3425540030002594 0.17100000381469727
v -0.33685898780822754 0.34575000405311584 0
v -0.2911520004272461 0.3425540030002594 -0.17100000381469727
v -0.1662759929895401 0.33382201194763184 -0.29618099331855774
v 0.005963999778032303 0.3455849885940552 0
vt 1 0.5
vt 1 0.5
vt 0.9829630255699158 0.6294089555740356
vt 0.9829630255699158 0.6290940046310425
vt 0.9330130219459534 0.75
vt 0.9330130219459534 0.7493909597396851
vt 0.8535529971122742 0.8535529971122742
vt 0.8535529971122742 0.8526920080184937
vt 0.75 0.9330130219459534
vt 0.75 0.931958019733429
vt 0.6294100284576416 0.9829630255699158
vt 0.6294100284576416 0.9817860126495361
vt 0.5 1
vt 0.5 0.9987819790840149
vt 0.3705900013446808 0.9829630255699158
vt 0.3705900013446808 0.9817860126495361
vt 0.25 0.9330130219459534
vt 0.25 0.931958019733429
vt 0.14644700288772583 0.8535529971122742
vt 0.14644700288772583 0.8526920080184937
vt 0.06698700040578842 0.75
vt 0.06698700040578842 0.7493909597396851
vt 0.017037000507116318 0.6294089555740356
vt 0.017037000507116318 0.6290940046310425
vt 0 0.5
vt 0 0.5
vt 0.017037000507116318 0.3705899715423584
vt 0.017037000507116318 0.3709059953689575
vt 0.06698700040578842 0.25
vt 0.06698700040578842 0.25060898065567017
vt 0.14644700288772583 0.14644700288772583
vt 0.14644700288772583 0.14730799198150635
vt 0.25 0.06698697805404663
vt 0.25 0.06804198026657104
vt 0.3705900013446808 0.01703697443008423
vt 0.3705900013446808 0.018213987350463867
vt 0.5 0
vt 0.5 0.0012180209159851074
vt 0.6294100284576416 0.01703697443008423
vt 0.6294100284576416 0.018213987350463867
vt 0.75 0.06698697805404663
vt 0.75 0.06804198026657104
vt 0.8535529971122742 0.14644700288772583
vt 0.8535529971122742 0.14730799198150635
vt 0.9330130219459534 0.25
vt 0.9330130219459534 0.25060898065567017
vt 0.9829630255699158 0.3705899715423584
vt 0.9829630255699158 0.3709059953689575
vt 0.9884729981422424 0.5019310116767883
vt 0.9718289971351624 0.6280499696731567
vt 0.9230300188064575 0.7455730438232422
vt 0.8454030156135559 0.8464930057525635
vt 0.7442370057106018 0.9239310026168823
vt 0.6264259815216064 0.9726110100746155
vt 0.5 0.9892150163650513
vt 0.37357398867607117 0.9726110100746155
vt 0.2557629942893982 0.9239310026168823
vt 0.15459699928760529 0.8464930057525635
vt 0.07697000354528427 0.7455730438232422
vt 0.028170999139547348 0.6280499696731567
vt 0.011526999995112419 0.5019310116767883
vt 0.028170999139547348 0.37581300735473633
vt 0.07697000354528427 0.25828999280929565
vt 0.15459699928760529 0.1573699712753296
vt 0.2557629942893982 0.07993197441101074
vt 0.37357398867607117 0.03125202655792236
vt 0.5 0.014648020267486572
vt 0.6264259815216064 0.03125202655792236
vt 0.7442370057106018 0.07993197441101074
vt 0.8454030156135559 0.1573699712753296
vt 0.9230300188064575 0.25828999280929565
vt 0.9718289971351624 0.37581300735473633
vt 0.9607840180397034 0.50273597240448
vt 0.9450830221176147 0.6217049956321716
vt 0.8990510106086731 0.7325659990310669
vt 0.8258240222930908 0.8277660012245178
vt 0.7303919792175293 0.9008139967918396
vt 0.6192600131034851 0.9467350244522095
vt 0.5 0.9623969793319702
vt 0.3807399868965149 0.9467350244522095
vt 0.2696079909801483 0.9008139967918396
vt 0.17417599260807037 0.8277660012245178
vt 0.1009489968419075 0.7325659990310669
vt 0.054917000234127045 0.6217049956321716
vt 0.03921600058674812 0.50273597240448
vt 0.054917000234127045 0.3837659955024719
vt 0.1009489968419075 0.27290499210357666
vt 0.17417599260807037 0.17770600318908691
vt 0.2696079909801483 0.10465699434280396
vt 0.3807399868965149 0.05873602628707886
vt 0.5 0.04307401180267334
vt 0.6192600131034851 0.05873602628707886
vt 0.7303919792175293 0.10465699434280396
vt 0.8258240222930908 0.17770600318908691
vt 0.8990510106086731 0.27290499210357666
vt 0.9450830221176147 0.3837659955024719
vt 0.8529409766197205 0.50444495677948
vt 0.8056560158729553 0.6804859638214111
vt 0.6764709949493408 0.8093569874763489
vt 0.5 0.8565269708633423
vt 0.3235290050506592 0.8093569874763489
vt 0.19434399902820587 0.6804859638214111
vt 0.14705899357795715 0.50444495677948
vt 0.19434399902820587 0.3284050226211548
vt 0.3235290050506592 0.19953399896621704
vt 0.5 0.15236401557922363
vt 0.6764709949493408 0.19953399896621704
vt 0.8056560158729553 0.3284050226211548
vt 0.5 0.5061550140380859
vn 0.010406999848783016 0.19245000183582306 -0.9812309741973877
vn -0.00003099999958067201 0.00003099999958067201 -1
vn 0.25894999504089355 0.00024399999529123306 -0.9658799767494202
vn 0.2640160024166107 0.18381300568580627 -0.946806013584137
vn 0.5002589821815491 0.0010379999876022339 -0.8658409714698792
vn 0.49986299872398376 0.17612199485301971 -0.8479869961738586
vn 0.7073889970779419 0.00228899996727705 -0.7068089842796326
vn 0.7019259929656982 0.16980500519275665 -0.6916710138320923
vn 0.8662070035934448 0.0036319999489933252 -0.4996489882469177
vn 0.8566849827766418 0.16510500013828278 -0.4886929988861084
vn 0.9659720063209534 0.004730000160634518 -0.25855299830436707
vn 0.9537950158119202 0.1622059941291809 -0.25281500816345215
vn 0.9999690055847168 0.0052189999260008335 0.00003099999958067201
vn 0.9869080185890198 0.16119900345802307 0.00003099999958067201
vn 0.9659410119056702 0.0049749999307096004 0.2586440145969391
vn 0.9537950158119202 0.16208399832248688 0.25284600257873535
vn 0.8661760091781616 0.004058999940752983 0.4996800124645233
vn 0.8566849827766418 0.16489200294017792 0.4887230098247528
vn 0.7073889970779419 0.002776999957859516 0.7067779898643494
vn 0.7019559741020203 0.1695609986782074 0.6917330026626587
vn 0.5003200173377991 0.0014649999793618917 0.865809977054596
vn 0.4998930096626282 0.17593899369239807 0.8480179905891418
vn 0.2590410113334656 0.0004579999949783087 0.9658499956130981
vn 0.26407700777053833 0.18372100591659546 0.9468370079994202
vn 0.00003099999958067201 0.00003099999958067201 1
vn 0.01046799961477518 0.19245000183582306 0.9812309741973877
vn -0.25894999504089355 0.00024399999529123306 0.9658799767494202
vn -0.24359899759292603 0.20154400169849396 0.9486680030822754
vn -0.500229001045227 0.0009159999899566174 0.865871012210846
vn -0.48075801134109497 0.21027299761772156 0.8512219786643982
vn -0.7073270082473755 0.0019229999743402004 0.7068700194358826
vn -0.6846830248832703 0.21796299517154694 0.6954560279846191
vn -0.8661460280418396 0.0028989999555051327 0.49974098801612854
vn -0.8412730097770691 0.22397500276565552 0.49195799231529236
vn -0.9659410119056702 0.0036619999445974827 0.2586140036582947
vn -0.939786970615387 0.2277899980545044 0.254707008600235
vn -0.9999690055847168 0.0039980001747608185 -0.00003099999958067201
vn -0.9733880162239075 0.22907200455665588 0
vn -0.9659410119056702 0.0038449999410659075 -0.2586750090122223
vn -0.939786970615387 0.22769899666309357 -0.2547380030155182
vn -0.8661460280418396 0.003203999949619174 -0.49977099895477295
vn -0.8413040041923523 0.2238530069589615 -0.49198898673057556
vn -0.7073270082473755 0.002257999964058399 -0.7068700194358826
vn -0.6847130060195923 0.2178110033273697 -0.6954860091209412
vn -0.5002589821815491 0.0012509999796748161 -0.865871012210846
vn -0.4808189868927002 0.21012000739574432 -0.8512529730796814
vn -0.25901100039482117 0.00042699999175965786 -0.9658499956130981
vn -0.24366000294685364 0.20145300030708313 -0.9486979842185974
vn 0.048218999058008194 0.6899009943008423 -0.7222819924354553
vn 0.23471799492835999 0.6768699884414673 -0.6976529955863953
vn 0.40849000215530396 0.6646929979324341 -0.6255069971084595
vn 0.5577260255813599 0.6542860269546509 -0.5107269883155823
vn 0.6722310185432434 0.6462600231170654 -0.36112600564956665
vn 0.744193971157074 0.6412240266799927 -0.186926007270813
vn 0.7687609791755676 0.6395149827003479 0
vn 0.744193971157074 0.6412240266799927 0.186926007270813
vn 0.6722310185432434 0.6462600231170654 0.36112600564956665
vn 0.5577260255813599 0.6542860269546509 0.5107269883155823
vn 0.40849000215530396 0.6646929979324341 0.6255069971084595
vn 0.23471799492835999 0.6768699884414673 0.6976529955863953
vn 0.048218999058008194 0.6899009943008423 0.7222819924354553
vn -0.1382180005311966 0.7029330134391785 0.6976529955863953
vn -0.31199100613594055 0.7150790095329285 0.6255069971084595
vn -0.4612259864807129 0.7255160212516785 0.5107269883155823
vn -0.5757319927215576 0.7335429787635803 0.36112600564956665
vn -0.647724986076355 0.7385780215263367 0.186926007270813
vn -0.6722620129585266 0.7402870059013367 0
vn -0.647724986076355 0.7385780215263367 -0.186926007270813
vn -0.5757319927215576 0.7335429787635803 -0.36112600564956665
vn -0.4612259864807129 0.7255160212516785 -0.5107269883155823
vn -0.31199100613594055 0.7150790095329285 -0.6255069971084595
vn -0.1382180005311966 0.7029330134391785 -0.6976529955863953
vn 0.06628599762916565 0.9482409954071045 -0.310494989156723
vn 0.14545099437236786 0.9440900087356567 -0.29581600427627563
vn 0.22116799652576447 0.9374070167541504 -0.26889899373054504
vn 0.28241801261901855 0.9345070123672485 -0.21655899286270142
vn 0.33454400300979614 0.929472029209137 -0.1552480012178421
vn 0.36149200797080994 0.9289829730987549 -0.07925699651241302
vn 0.3760490119457245 0.9265720248222351 0
vn 0.36149200797080994 0.9289829730987549 0.07925699651241302
vn 0.33454400300979614 0.929472029209137 0.1552480012178421
vn 0.28241801261901855 0.9345070123672485 0.21655899286270142
vn 0.22116799652576447 0.9374070167541504 0.26889899373054504
vn 0.14545099437236786 0.9440900087356567 0.29581600427627563
vn 0.06628599762916565 0.9482409954071045 0.310494989156723
vn -0.012664999812841415 0.9551380276679993 0.29581600427627563
vn -0.08856499940156937 0.9590749740600586 0.26889899373054504
vn -0.14963200688362122 0.9647210240364075 0.21655899286270142
vn -0.20194099843502045 0.9670090079307556 0.1552480012178421
vn -0.2287060022354126 0.9702439904212952 0.07925699651241302
vn -0.24341599643230438 0.9699090123176575 0
vn -0.2287060022354126 0.9702439904212952 -0.07925699651241302
vn -0.20194099843502045 0.9670090079307556 -0.1552480012178421
vn -0.14963200688362122 0.9647210240364075 -0.21655899286270142
vn -0.08856499940156937 0.9590749740600586 -0.26889899373054504
vn -0.012664999812841415 0.9551380276679993 -0.29581600427627563
vn 0.06894099712371826 0.9862359762191772 -0.1500599980354309
vn 0.14380300045013428 0.981016993522644 -0.1299780011177063
vn 0.1986140012741089 0.9771720170974731 -0.07501400262117386
vn 0.2186650037765503 0.9757680296897888 0
vn 0.1986140012741089 0.9771720170974731 0.07501400262117386
vn 0.14380300045013428 0.981016993522644 0.1299780011177063
vn 0.06894099712371826 0.9862359762191772 0.1500599980354309
vn -0.005890000145882368 0.9914849996566772 0.1299780011177063
vn -0.06067100167274475 0.9953309893608093 0.07501400262117386
vn -0.08075200021266937 0.9967039823532104 0
vn -0.06067100167274475 0.9953309893608093 -0.07501400262117386
vn -0.005890000145882368 0.9914849996566772 -0.1299780011177063
vn 0.06973499804735184 0.9975590109825134 0
f 3/3/3 2/2/2 1/1/1
f 1/1/1 4/4/4 3/3/3
f 5/5/5 3/3/3 4/4/4
f 48/48/48 1/1/1 2/2/2
f 2/2/2 47/47/47 48/48/48
f 4/4/4 6/6/6 5/5/5
f 7/7/7 5/5/5 6/6/6
f 46/46/46 48/48/48 47/47/47
f 47/47/47 45/45/45 46/46/46
f 6/6/6 8/8/8 7/7/7
f 9/9/9 7/7/7 8/8/8
f 44/44/44 46/46/46 45/45/45
f 45/45/45 43/43/43 44/44/44
f 8/8/8 10/10/10 9/9/9
f 11/11/11 9/9/9 10/10/10
f 42/42/42 44/44/44 43/43/43
f 43/43/43 41/41/41 42/42/42
f 10/10/10 12/12/12 11/11/11
f 13/13/13 11/11/11 12/12/12
f 40/40/40 42/42/42 41/41/41
f 41/41/41 39/39/39 40/40/40
f 12/12/12 14/14/14 13/13/13
f 15/15/15 13/13/13 14/14/14
f 38/38/38 40/40/40 39/39/39
f 39/39/39 37/37/37 38/38/38
f 14/14/14 16/16/16 15/15/15
f 17/17/17 15/15/15 16/16/16
f 36/36/36 38/38/38 37/37/37
f 37/37/37 35/35/35 36/36/36
f 16/16/16 18/18/18 17/17/17
f 19/19/19 17/17/17 18/18/18
f 34/34/34 36/36/36 35/35/35
f 35/35/35 33/33/33 34/34/34
f 18/18/18 20/20/20 19/19/19
f 21/21/21 19/19/19 20/20/20
f 32/32/32 34/34/34 33/33/33
f 33/33/33 31/31/31 32/32/32
f 20/20/20 22/22/22 21/21/21
f 23/23/23 21/21/21 22/22/22
f 30/30/30 32/32/32 31/31/31
f 31/31/31 29/29/29 30/30/30
f 22/22/22 24/24/24 23/23/23
f 25/25/25 23/23/23 24/24/24
f 28/28/28 30/30/30 29/29/29
f 29/29/29 27/27/27 28/28/28
f 27/27/27 25/25/25 26/26/26
f 26/26/26 28/28/28 27/27/27
f 24/24/24 26/26/26 25/25/25
f 30/30/30 28/28/28 62/62/62
f 28/28/28 26/26/26 61/61/61
f 61/61/61 62/62/62 28/28/28
f 26/26/26 24/24/24 60/60/60
f 60/60/60 61/61/61 26/26/26
f 24/24/24 22/22/22 59/59/59
f 59/59/59 60/60/60 24/24/24
f 22/22/22 20/20/20 58/58/58
f 58/58/58 59/59/59 22/22/22
f 57/57/57 58/58/58 20/20/20
f 20/20/20 18/18/18 57/57/57
f 59/59/59 58/58/58 82/82/82
f 56/56/56 57/57/57 18/18/18
f 18/18/18 16/16/16 56/56/56
f 58/58/58 57/57/57 81/81/81
f 81/81/81 82/82/82 58/58/58
f 57/57/57 56/56/56 80/80/80
f 80/80/80 81/81/81 57/57/57
f 55/55/55 56/56/56 16/16/16
f 16/16/16 14/14/14 55/55/55
f 79/79/79 80/80/80 56/56/56
f 56/56/56 55/55/55 79/79/79
f 80/80/80 101/101/101 81/81/81
f 82/82/82 81/81/81 101/101/101
f 80/80/80 79/79/79 100/100/100
f 80/80/80 100/100/100 101/101/101
f 78/78/78 79/79/79 55/55/55
f 78/78/78 100/100/100 79/79/79
f 54/54/54 55/55/55 14/14/14
f 55/55/55 54/54/54 78/78/78
f 14/14/14 12/12/12 54/54/54
f 78/78/78 99/99/99 100/100/100
f 53/53/53 54/54/54 12/12/12
f 12/12/12 10/10/10 53/53/53
f 77/77/77 78/78/78 54/54/54
f 54/54/54 53/53/53 77/77/77
f 78/78/78 77/77/77 99/99/99
f 52/52/52 53/53/53 10/10/10
f 10/10/10 8/8/8 52/52/52
f 76/76/76 77/77/77 53/53/53
f 53/53/53 52/52/52 76/76/76
f 76/76/76 99/99/99 77/77/77
f 51/51/51 52/52/52 8/8/8
f 8/8/8 6/6/6 51/51/51
f 75/75/75 76/76/76 52/52/52
f 52/52/52 51/51/51 75/75/75
f 76/76/76 98/98/98 99/99/99
f 76/76/76 75/75/75 98/98/98
f 50/50/50 51/51/51 6/6/6
f 6/6/6 4/4/4 50/50/50
f 74/74/74 75/75/75 51/51/51
f 51/51/51 50/50/50 74/74/74
f 74/74/74 98/98/98 75/75/75
f 49/49/49 50/50/50 4/4/4
f 4/4/4 1/1/1 49/49/49
f 73/73/73 74/74/74 50/50/50
f 50/50/50 49/49/49 73/73/73
f 74/74/74 97/97/97 98/98/98
f 74/74/74 73/73/73 97/97/97
f 72/72/72 49/49/49 1/1/1
f 1/1/1 48/48/48 72/72/72
f 96/96/96 73/73/73 49/49/49
f 49/49/49 72/72/72 96/96/96
f 96/96/96 97/97/97 73/73/73
f 71/71/71 72/72/72 48/48/48
f 48/48/48 46/46/46 71/71/71
f 95/95/95 96/96/96 72/72/72
f 72/72/72 71/71/71 95/95/95
f 108/108/108 97/97/97 96/96/96
f 95/95/95 108/108/108 96/96/96
f 70/70/70 71/71/71 46/46/46
f 46/46/46 44/44/44 70/70/70
f 94/94/94 95/95/95 71/71/71
f 71/71/71 70/70/70 94/94/94
f 94/94/94 108/108/108 95/95/95
f 69/69/69 70/70/70 44/44/44
f 44/44/44 42/42/42 69/69/69
f 93/93/93 94/94/94 70/70/70
f 70/70/70 69/69/69 93/93/93
f 94/94/94 107/107/107 108/108/108
f 93/93/93 107/107/107 94/94/94
f 68/68/68 69/69/69 42/42/42
f 42/42/42 40/40/40 68/68/68
f 92/92/92 93/93/93 69/69/69
f 69/69/69 68/68/68 92/92/92
f 92/92/92 107/107/107 93/93/93
f 67/67/67 68/68/68 40/40/40
f 40/40/40 38/38/38 67/67/67
f 91/91/91 92/92/92 68/68/68
f 68/68/68 67/67/67 91/91/91
f 92/92/92 106/106/106 107/107/107
f 92/92/92 91/91/91 106/106/106
f 66/66/66 67/67/67 38/38/38
f 38/38/38 36/36/36 66/66/66
f 90/90/90 91/91/91 67/67/67
f 67/67/67 66/66/66 90/90/90
f 90/90/90 106/106/106 91/91/91
f 65/65/65 66/66/66 36/36/36
f 36/36/36 34/34/34 65/65/65
f 89/89/89 90/90/90 66/66/66
f 66/66/66 65/65/65 89/89/89
f 90/90/90 105/105/105 106/106/106
f 90/90/90 89/89/89 105/105/105
f 64/64/64 65/65/65 34/34/34
f 34/34/34 32/32/32 64/64/64
f 88/88/88 89/89/89 65/65/65
f 65/65/65 64/64/64 88/88/88
f 88/88/88 105/105/105 89/89/89
f 63/63/63 64/64/64 32/32/32
f 32/32/32 30/30/30 63/63/63
f 62/62/62 63/63/63 30/30/30
f 87/87/87 88/88/88 64/64/64
f 64/64/64 63/63/63 87/87/87
f 88/88/88 104/104/104 105/105/105
f 88/88/88 87/87/87 104/104/104
f 86/86/86 87/87/87 63/63/63
f 63/63/63 62/62/62 86/86/86
f 86/86/86 104/104/104 87/87/87
f 85/85/85 86/86/86 62/62/62
f 62/62/62 61/61/61 85/85/85
f 86/86/86 103/103/103 104/104/104
f 86/86/86 85/85/85 103/103/103
f 84/84/84 85/85/85 61/61/61
f 84/84/84 103/103/103 85/85/85
f 61/61/61 60/60/60 84/84/84
f 109/109/109 105/105/105 104/104/104
f 109/109/109 104/104/104 103/103/103
f 109/109/109 106/106/106 105/105/105
f 109/109/109 107/107/107 106/106/106
f 109/109/109 108/108/108 107/107/107
f 97/97/97 108/108/108 109/109/109
f 109/109/109 98/98/98 97/97/97
f 109/109/109 99/99/99 98/98/98
f 109/109/109 100/100/100 99/99/99
f 109/109/109 101/101/101 100/100/100
f 109/109/109 103/103/103 102/102/102
f 109/109/109 102/102/102 101/101/101
f 84/84/84 102/102/102 103/103/103
f 82/82/82 101/101/101 102/102/102
f 84/84/84 83/83/83 102/102/102
f 82/82/82 102/102/102 83/83/83
f 83/83/83 84/84/84 60/60/60
f 82/82/82 83/83/83 59/59/59
f 60/60/60 59/59/59 83/83/83
