# VPXTOOL table OBJ file
# VPXTOOL OBJ file
# numVerts: 38 numFaces: 114
o playfield_mesh
v 473.40899658203125 954.36376953125 0.00015300000086426735
v 471.98638916015625 949.6739501953125 0.00015199999324977398
v 952 0 0
v 424.3697814941406 964.1182861328125 0.00015500000154133886
v 425.79241943359375 968.80810546875 0.000155999994603917
v 0 2162 0.00035200000274926424
v 423.889404296875 959.2410278320313 0.0001539999939268455
v 424.3226623535156 963.640380859375 0.00015700000221841037
v 0 0 0
v 424.3697814941406 954.36376953125 0.00015300000086426735
v 952 2162 0.00035200000274926424
v 428.9630432128906 974.1787109375 0.00015900000289548188
v 431.21173095703125 976.918701171875 0.000155999994603917
v 435.0001220703125 980.0277099609375 0.00015700000221841037
v 425.79241943359375 949.6738891601563 0.00015199999324977398
v 428.10272216796875 945.351806640625 0.00015199999324977398
v 439.32232666015625 982.3380126953125 0.00015799999528098851
v 444.01214599609375 983.7607421875 0.00015799999528098851
v 448.889404296875 934.2410888671875 0.00015199999324977398
v 431.2117614746094 941.5633544921875 0.00015100000018719584
v 435.00018310546875 938.454345703125 0.00015100000018719584
v 448.889404296875 984.2410888671875 0.00015799999528098851
v 453.76666259765625 983.7607421875 0.00015799999528098851
v 439.3223876953125 936.14404296875 0.00015300000086426735
v 444.01220703125 934.721435546875 0.00015199999324977398
v 458.45648193359375 982.3380126953125 0.00015799999528098851
v 462.77862548828125 980.0277099609375 0.00015700000221841037
v 466.56707763671875 976.918701171875 0.000155999994603917
v 469.6761474609375 973.1302490234375 0.000155999994603917
v 453.76666259765625 934.721435546875 0.00015199999324977398
v 458.45648193359375 936.14404296875 0.00015300000086426735
v 471.98638916015625 968.80810546875 0.000155999994603917
v 473.4090270996094 964.1182861328125 0.00015500000154133886
v 462.7786865234375 938.454345703125 0.00015100000018719584
v 466.56707763671875 941.5633544921875 0.00015100000018719584
v 473.889404296875 959.2410278320313 0.0001539999939268455
v 469.6761474609375 945.351806640625 0.00015199999324977398
v 428.1026611328125 973.1302490234375 0.000155999994603917
vt 0.49727800488471985 0.44142597913742065
vt 0.4957840144634247 0.43925702571868896
vt 1 0
vt 0.44576698541641235 0.44593799114227295
vt 0.4472610056400299 0.4481070041656494
vt 0 1
vt 0.44526201486587524 0.4436820149421692
vt 0.4457170069217682 0.4457169771194458
vt 0 0
vt 0.44576698541641235 0.44142597913742065
vt 1 1
vt 0.45059099793434143 0.4505910277366638
vt 0.4529530107975006 0.4518589973449707
vt 0.45693299174308777 0.4532970190048218
vt 0.4472610056400299 0.43925702571868896
vt 0.44968798756599426 0.4372580051422119
vt 0.4614729881286621 0.4543650150299072
vt 0.46639901399612427 0.45502299070358276
vt 0.4715220034122467 0.4321190118789673
vt 0.4529530107975006 0.4355059862136841
vt 0.45693299174308777 0.4340680241584778
vt 0.4715220034122467 0.4552459716796875
vt 0.4766460061073303 0.45502299070358276
vt 0.4614729881286621 0.43299901485443115
vt 0.46639901399612427 0.43234097957611084
vt 0.4815720021724701 0.4543650150299072
vt 0.48611199855804443 0.4532970190048218
vt 0.4900909960269928 0.4518589973449707
vt 0.49335700273513794 0.45010602474212646
vt 0.4766460061073303 0.43234097957611084
vt 0.4815720021724701 0.43299901485443115
vt 0.4957840144634247 0.4481070041656494
vt 0.49727800488471985 0.44593799114227295
vt 0.48611199855804443 0.4340680241584778
vt 0.4900909960269928 0.4355059862136841
vt 0.49778300523757935 0.4436820149421692
vt 0.49335700273513794 0.4372580051422119
vt 0.44968798756599426 0.45010697841644287
vn 0 0 -1
vn 0 0 -1
vn 0 0 -1
vn 0 0 -1
vn 0 0 -1
vn 0 0 -1
vn 0 0 -1
vn 0 0 -1
vn 0 0 -1
vn 0 0 -1
vn 0 0 -1
vn 0 0 -1
vn 0 0 -1
vn 0 0 -1
vn 0 0 -1
vn 0 0 -1
vn 0 0 -1
vn 0 0 -1
vn 0 0 -1
vn 0 0 -1
vn 0 0 -1
vn 0 0 -1
vn 0 0 -1
vn 0 0 -1
vn 0 0 -1
vn 0 0 -1
vn 0 0 -1
vn 0 0 -1
vn 0 0 -1
vn 0 0 -1
vn 0 0 -1
vn 0 0 -1
vn 0 0 -1
vn 0 0 -1
vn 0 0 -1
vn 0 0 -1
vn 0 0 -1
vn 0 0 -1
f 6/6/6 5/5/5 4/4/4
f 6/6/6 38/38/38 5/5/5
f 4/4/4 8/8/8 6/6/6
f 6/6/6 12/12/12 38/38/38
f 8/8/8 9/9/9 6/6/6
f 6/6/6 11/11/11 12/12/12
f 9/9/9 8/8/8 7/7/7
f 13/13/13 12/12/12 11/11/11
f 9/9/9 7/7/7 10/10/10
f 14/14/14 13/13/13 11/11/11
f 9/9/9 10/10/10 15/15/15
f 17/17/17 14/14/14 11/11/11
f 9/9/9 15/15/15 16/16/16
f 18/18/18 17/17/17 11/11/11
f 9/9/9 16/16/16 20/20/20
f 22/22/22 18/18/18 11/11/11
f 9/9/9 20/20/20 21/21/21
f 23/23/23 22/22/22 11/11/11
f 9/9/9 21/21/21 24/24/24
f 26/26/26 23/23/23 11/11/11
f 9/9/9 24/24/24 25/25/25
f 27/27/27 26/26/26 11/11/11
f 9/9/9 25/25/25 19/19/19
f 28/28/28 27/27/27 11/11/11
f 3/3/3 9/9/9 19/19/19
f 29/29/29 28/28/28 11/11/11
f 3/3/3 19/19/19 30/30/30
f 32/32/32 29/29/29 11/11/11
f 3/3/3 30/30/30 31/31/31
f 33/33/33 32/32/32 11/11/11
f 3/3/3 31/31/31 34/34/34
f 33/33/33 11/11/11 36/36/36
f 11/11/11 3/3/3 36/36/36
f 3/3/3 34/34/34 35/35/35
f 1/1/1 36/36/36 3/3/3
f 3/3/3 35/35/35 37/37/37
f 3/3/3 2/2/2 1/1/1
f 3/3/3 37/37/37 2/2/2
