# VPXTOOL table OBJ file
# VPXTOOL OBJ file
# numVerts: 131 numFaces: 396
o PegMetalT4
v 0.04376000165939331 0.005040000192821026 -0.07200399786233902
v 0.0010100000072270632 0.2709600031375885 -0.08345499634742737
v 0.0010100000072270632 0.005040000192821026 -0.08345499634742737
v 0.04376000165939331 0.2709600031375885 -0.07200399786233902
v 0.07505500316619873 0.2709600031375885 -0.04071800038218498
v 0.07505500316619873 0.005040000192821026 -0.04071800038218498
v 0.08651000261306763 0.005040000192821026 0.002019000006839633
v 0.08651000261306763 0.2709600031375885 0.002019000006839633
v 0.07505500316619873 0.2709600031375885 0.04475700110197067
v 0.08651000261306763 0.2709600031375885 0.002019000006839633
v 0.07505500316619873 0.005040000192821026 0.04475700110197067
v 0.08651000261306763 0.005040000192821026 0.002019000006839633
v 0.04376000165939331 0.005040000192821026 0.07604199647903442
v 0.04376000165939331 0.2709600031375885 0.07604199647903442
v 0.0010100000072270632 0.2709600031375885 0.08749400079250336
v 0.0010100000072270632 0.005040000192821026 0.08749400079250336
v -0.04174000024795532 0.005040000192821026 0.07604199647903442
v -0.04174000024795532 0.2709600031375885 0.07604199647903442
v -0.07303600013256073 0.2709600031375885 0.04475700110197067
v -0.07303600013256073 0.005040000192821026 0.04475700110197067
v -0.08449000120162964 0.005040000192821026 0.002019000006839633
v -0.08449000120162964 0.2709600031375885 0.002019000006839633
v -0.07303600013256073 0.2709600031375885 -0.04071800038218498
v -0.07303600013256073 0.005040000192821026 -0.04071800038218498
v -0.04174000024795532 0.005040000192821026 -0.07200399786233902
v -0.04174000024795532 0.2709600031375885 -0.07200399786233902
v 0.0010100000072270632 0.2994599938392639 -0.05439399927854538
v 0.0010100000072270632 0.2709600031375885 -0.08345499634742737
v 0.04376000165939331 0.2709600031375885 -0.07200399786233902
v 0.07505500316619873 0.2709600031375885 -0.04071800038218498
v 0.049880001693964005 0.2994599938392639 -0.026187000796198845
v 0.049880001693964005 0.2994599938392639 -0.026187000796198845
v 0.07505500316619873 0.2709600031375885 -0.04071800038218498
v 0.08651000261306763 0.2709600031375885 0.002019000006839633
v 0.07505500316619873 0.2709600031375885 0.04475700110197067
v 0.049880001693964005 0.2994599938392639 0.030225999653339386
v 0.04376000165939331 0.2709600031375885 0.07604199647903442
v 0.0010100000072270632 0.2709600031375885 0.08749400079250336
v 0.0010100000072270632 0.2994599938392639 0.05843299999833107
v -0.04174000024795532 0.2709600031375885 0.07604199647903442
v -0.07303600013256073 0.2709600031375885 0.04475700110197067
v -0.047860000282526016 0.2994599938392639 0.030225999653339386
v -0.08449000120162964 0.2709600031375885 0.002019000006839633
v -0.07303600013256073 0.2709600031375885 -0.04071800038218498
v -0.047860000282526016 0.2994599938392639 -0.026187000796198845
v -0.04174000024795532 0.2709600031375885 -0.07200399786233902
v 0.0010100000072270632 0.3659600019454956 -0.08345499634742737
v 0.0010100000072270632 0.3374600112438202 -0.05439399927854538
v 0.04376000165939331 0.3659600019454956 -0.07200399786233902
v 0.049880001693964005 0.3374600112438202 -0.026187000796198845
v 0.07505500316619873 0.3659600019454956 -0.04071800038218498
v 0.07505500316619873 0.3659600019454956 -0.04071800038218498
v 0.049880001693964005 0.3374600112438202 -0.026187000796198845
v 0.08651000261306763 0.3659600019454956 0.002019000006839633
v 0.049880001693964005 0.3374600112438202 0.030225999653339386
v 0.07505500316619873 0.3659600019454956 0.04475700110197067
v 0.04376000165939331 0.3659600019454956 0.07604199647903442
v 0.0010100000072270632 0.3374600112438202 0.05843299999833107
v 0.0010100000072270632 0.3659600019454956 0.08749400079250336
v -0.04174000024795532 0.3659600019454956 0.07604199647903442
v -0.047860000282526016 0.3374600112438202 0.030225999653339386
v -0.07303600013256073 0.3659600019454956 0.04475700110197067
v -0.08449000120162964 0.3659600019454956 0.002019000006839633
v -0.047860000282526016 0.3374600112438202 -0.026187000796198845
v -0.07303600013256073 0.3659600019454956 -0.04071800038218498
v -0.04174000024795532 0.3659600019454956 -0.07200399786233902
v 0.0010100000072270632 0.5559599995613098 -0.08345499634742737
v 0.0010100000072270632 0.3659600019454956 -0.08345499634742737
v 0.04376000165939331 0.3659600019454956 -0.07200399786233902
v 0.04376000165939331 0.5559599995613098 -0.07200399786233902
v 0.07505500316619873 0.3659600019454956 -0.04071800038218498
v 0.07505500316619873 0.5559599995613098 -0.04071800038218498
v 0.08651000261306763 0.3659600019454956 0.002019000006839633
v 0.08651000261306763 0.5559599995613098 0.002019000006839633
v 0.08651000261306763 0.5559599995613098 0.002019000006839633
v 0.08651000261306763 0.3659600019454956 0.002019000006839633
v 0.07505500316619873 0.3659600019454956 0.04475700110197067
v 0.07505500316619873 0.5559599995613098 0.04475700110197067
v 0.04376000165939331 0.3659600019454956 0.07604199647903442
v 0.04376000165939331 0.5559599995613098 0.07604199647903442
v 0.0010100000072270632 0.3659600019454956 0.08749400079250336
v 0.0010100000072270632 0.5559599995613098 0.08749400079250336
v -0.04174000024795532 0.3659600019454956 0.07604199647903442
v -0.04174000024795532 0.5559599995613098 0.07604199647903442
v -0.07303600013256073 0.3659600019454956 0.04475700110197067
v -0.07303600013256073 0.5559599995613098 0.04475700110197067
v -0.08449000120162964 0.3659600019454956 0.002019000006839633
v -0.08449000120162964 0.5559599995613098 0.002019000006839633
v -0.07303600013256073 0.3659600019454956 -0.04071800038218498
v -0.07303600013256073 0.5559599995613098 -0.04071800038218498
v -0.04174000024795532 0.3659600019454956 -0.07200399786233902
v -0.04174000024795532 0.5559599995613098 -0.07200399786233902
v 0.0010100000072270632 0.5749599933624268 -0.07063400000333786
v 0.04376000165939331 0.5559599995613098 -0.07200399786233902
v 0.03734700009226799 0.5749599933624268 -0.0608999989926815
v 0.0010100000072270632 0.5559599995613098 -0.08345499634742737
v 0.07505500316619873 0.5559599995613098 -0.04071800038218498
v 0.06394799798727036 0.5749599933624268 -0.034306999295949936
v 0.08651000261306763 0.5559599995613098 0.002019000006839633
v 0.07368499785661697 0.5749599933624268 0.002019000006839633
v 0.07368499785661697 0.5749599933624268 0.002019000006839633
v 0.08651000261306763 0.5559599995613098 0.002019000006839633
v 0.07505500316619873 0.5559599995613098 0.04475700110197067
v 0.06394799798727036 0.5749599933624268 0.038346000015735626
v 0.04376000165939331 0.5559599995613098 0.07604199647903442
v 0.03734700009226799 0.5749599933624268 0.0649389997124672
v 0.0010100000072270632 0.5559599995613098 0.08749400079250336
v 0.0010100000072270632 0.5749599933624268 0.07467299699783325
v -0.04174000024795532 0.5559599995613098 0.07604199647903442
v -0.03532800078392029 0.5749599933624268 0.0649389997124672
v -0.07303600013256073 0.5559599995613098 0.04475700110197067
v -0.06192899867892265 0.5749599933624268 0.038346000015735626
v -0.08449000120162964 0.5559599995613098 0.002019000006839633
v -0.07166499644517899 0.5749599933624268 0.002019000006839633
v -0.07303600013256073 0.5559599995613098 -0.04071800038218498
v -0.06192899867892265 0.5749599933624268 -0.034306999295949936
v -0.04174000024795532 0.5559599995613098 -0.07200399786233902
v -0.03532800078392029 0.5749599933624268 -0.0608999989926815
v 0.0010100000072270632 0.5749599933624268 0.002019000006839633
v 0.0010100000072270632 0.5749599933624268 -0.07063400000333786
v 0.03734700009226799 0.5749599933624268 -0.0608999989926815
v 0.06394799798727036 0.5749599933624268 -0.034306999295949936
v 0.07368499785661697 0.5749599933624268 0.002019000006839633
v 0.06394799798727036 0.5749599933624268 0.038346000015735626
v 0.03734700009226799 0.5749599933624268 0.0649389997124672
v 0.0010100000072270632 0.5749599933624268 0.07467299699783325
v -0.03532800078392029 0.5749599933624268 0.0649389997124672
v -0.06192899867892265 0.5749599933624268 0.038346000015735626
v -0.07166499644517899 0.5749599933624268 0.002019000006839633
v -0.06192899867892265 0.5749599933624268 -0.034306999295949936
v -0.03532800078392029 0.5749599933624268 -0.0608999989926815
vt 0.16791899502277374 1
vt 0.2567499876022339 0.533407986164093
vt 0.2567499876022339 1
vt 0.16791899502277374 0.533407986164093
vt 0.08400300145149231 0.533407986164093
vt 0.08400300145149231 1
vt 0 1
vt 0 0.533407986164093
vt 0.9159970283508301 0.533407986164093
vt 0.9980000257492065 0.533407986164093
vt 0.9159970283508301 1
vt 0.9980000257492065 1
vt 0.836080014705658 1
vt 0.836080014705658 0.533407986164093
vt 0.7542499899864197 0.533407986164093
vt 0.7542499899864197 1
vt 0.672419011592865 1
vt 0.672419011592865 0.533407986164093
vt 0.5885030031204224 0.533407986164093
vt 0.5885030031204224 1
vt 0.5044999718666077 1
vt 0.5044999718666077 0.533407986164093
vt 0.4224970042705536 0.533407986164093
vt 0.4224970042705536 1
vt 0.33858099579811096 1
vt 0.33858099579811096 0.533407986164093
vt 0.16775000095367432 0.48340100049972534
vt 0.16775000095367432 0.533407986164093
vt 0.08391900360584259 0.533407986164093
vt 0.000003000000106112566 0.533407986164093
vt 0.000003000000106112566 0.48340100049972534
vt 0.9983019828796387 0.48340100049972534
vt 0.9983019828796387 0.533407986164093
vt 0.9160000085830688 0.533407986164093
vt 0.8359969854354858 0.533407986164093
vt 0.8359969854354858 0.48340100049972534
vt 0.7540799975395203 0.533407986164093
vt 0.672249972820282 0.533407986164093
vt 0.672249972820282 0.48340100049972534
vt 0.5884190201759338 0.533407986164093
vt 0.5045030117034912 0.533407986164093
vt 0.50450199842453 0.48340100049972534
vt 0.42250001430511475 0.533407986164093
vt 0.33849701285362244 0.533407986164093
vt 0.33849701285362244 0.48340100049972534
vt 0.25658100843429565 0.533407986164093
vt 0.16775000095367432 0.36671799421310425
vt 0.16775000095367432 0.4167249798774719
vt 0.08391900360584259 0.36671799421310425
vt 0.000003000000106112566 0.4167249798774719
vt 0.000003000000106112566 0.36671799421310425
vt 0.9983019828796387 0.36671799421310425
vt 0.9983019828796387 0.4167249798774719
vt 0.9160000085830688 0.36671799421310425
vt 0.8359969854354858 0.4167249798774719
vt 0.8359969854354858 0.36671799421310425
vt 0.7540799975395203 0.36671799421310425
vt 0.672249972820282 0.4167249798774719
vt 0.672249972820282 0.36671799421310425
vt 0.5884190201759338 0.36671799421310425
vt 0.50450199842453 0.4167249798774719
vt 0.5045030117034912 0.36671799421310425
vt 0.42250001430511475 0.36671799421310425
vt 0.33849701285362244 0.4167249798774719
vt 0.33849701285362244 0.36671799421310425
vt 0.25658100843429565 0.36671799421310425
vt 0.2567499876022339 0.03333801031112671
vt 0.2567499876022339 0.36671799421310425
vt 0.16791899502277374 0.36671799421310425
vt 0.16791899502277374 0.03333801031112671
vt 0.08400300145149231 0.36671799421310425
vt 0.08400300145149231 0.03333801031112671
vt 0 0.36671799421310425
vt 0 0.03333801031112671
vt 0.9980000257492065 0.03333801031112671
vt 0.9980000257492065 0.36671799421310425
vt 0.9159970283508301 0.36671799421310425
vt 0.9159970283508301 0.03333801031112671
vt 0.836080014705658 0.36671799421310425
vt 0.836080014705658 0.03333801031112671
vt 0.7542499899864197 0.36671799421310425
vt 0.7542499899864197 0.03333801031112671
vt 0.672419011592865 0.36671799421310425
vt 0.672419011592865 0.03333801031112671
vt 0.5885030031204224 0.36671799421310425
vt 0.5885030031204224 0.03333801031112671
vt 0.5044999718666077 0.36671799421310425
vt 0.5044999718666077 0.03333801031112671
vt 0.4224970042705536 0.36671799421310425
vt 0.4224970042705536 0.03333801031112671
vt 0.33858099579811096 0.36671799421310425
vt 0.33858099579811096 0.03333801031112671
vt 0.2567499876022339 0
vt 0.16791899502277374 0.03333801031112671
vt 0.16791899502277374 0
vt 0.2567499876022339 0.03333801031112671
vt 0.08400300145149231 0.03333801031112671
vt 0.08400300145149231 0
vt 0 0.03333801031112671
vt 0 0
vt 0.9980000257492065 0
vt 0.9980000257492065 0.03333801031112671
vt 0.9159970283508301 0.03333801031112671
vt 0.9159970283508301 0
vt 0.836080014705658 0.03333801031112671
vt 0.836080014705658 0
vt 0.7542499899864197 0.03333801031112671
vt 0.7542499899864197 0
vt 0.672419011592865 0.03333801031112671
vt 0.672419011592865 0
vt 0.5885030031204224 0.03333801031112671
vt 0.5885030031204224 0
vt 0.5044999718666077 0.03333801031112671
vt 0.5044999718666077 0
vt 0.4224970042705536 0.03333801031112671
vt 0.4224970042705536 0
vt 0.33858099579811096 0.03333801031112671
vt 0.33858099579811096 0
vt 0.16885200142860413 0.20451301336288452
vt 0.2938520014286041 0.20451301336288452
vt 0.2771050035953522 0.2670130133628845
vt 0.23135200142860413 0.31276702880859375
vt 0.16885200142860413 0.3295140266418457
vt 0.10635200142860413 0.31276702880859375
vt 0.06059899926185608 0.2670130133628845
vt 0.043852001428604126 0.20451301336288452
vt 0.06059899926185608 0.14201301336288452
vt 0.10635200142860413 0.09626001119613647
vt 0.16885200142860413 0.07951301336288452
vt 0.23135200142860413 0.09626001119613647
vt 0.2771050035953522 0.14201301336288452
vn 0.4998930096626282 0 -0.8660539984703064
vn 0 0 -1
vn 0 0 -1
vn 0.4998930096626282 0 -0.8660539984703064
vn 0.8659629821777344 0 -0.5000759959220886
vn 0.8659629821777344 0 -0.5000759959220886
vn 1 0 0
vn 1 0 0
vn 0.8659629821777344 0 0.5000759959220886
vn 1 0 0
vn 0.8659629821777344 0 0.5000759959220886
vn 1 0 0
vn 0.4998930096626282 0 0.8660539984703064
vn 0.4998930096626282 0 0.8660539984703064
vn 0 0 1
vn 0 0 1
vn -0.4998930096626282 0 0.8660539984703064
vn -0.4998930096626282 0 0.8660539984703064
vn -0.8659629821777344 0 0.5000759959220886
vn -0.8659629821777344 0 0.5000759959220886
vn -1 0 0
vn -1 0 0
vn -0.8659629821777344 0 -0.5000759959220886
vn -0.8659629821777344 0 -0.5000759959220886
vn -0.4998930096626282 0 -0.8660539984703064
vn -0.4998930096626282 0 -0.8660539984703064
vn 0 0.49769601225852966 -0.8673359751701355
vn 0 0.713949978351593 -0.7001559734344482
vn 0.33326199650764465 0.7453539967536926 -0.5773490071296692
vn 0.606249988079071 0.7140420079231262 -0.3500779867172241
vn 0.7510300278663635 0.4978179931640625 -0.43369901180267334
vn 0.7510300278663635 0.4978179931640625 -0.43369901180267334
vn 0.606249988079071 0.7140420079231262 -0.3500779867172241
vn 0.6665549874305725 0.7454149723052979 0
vn 0.606249988079071 0.7140420079231262 0.3500779867172241
vn 0.7510300278663635 0.4978179931640625 0.43369901180267334
vn 0.33326199650764465 0.7453539967536926 0.5773490071296692
vn 0 0.713949978351593 0.7001559734344482
vn 0 0.49769601225852966 0.8673359751701355
vn -0.33326199650764465 0.7453539967536926 0.5773490071296692
vn -0.606249988079071 0.7140420079231262 0.3500779867172241
vn -0.7510300278663635 0.4978179931640625 0.43369901180267334
vn -0.6665850281715393 0.7454149723052979 0
vn -0.606249988079071 0.7140420079231262 -0.3500779867172241
vn -0.7510300278663635 0.4978179931640625 -0.43369901180267334
vn -0.33326199650764465 0.7453539967536926 -0.5773490071296692
vn 0 -0.713949978351593 -0.7001559734344482
vn 0 -0.49769601225852966 -0.8673359751701355
vn 0.33326199650764465 -0.7453539967536926 -0.5773490071296692
vn 0.7510300278663635 -0.4978179931640625 -0.43369901180267334
vn 0.606249988079071 -0.7140420079231262 -0.3500779867172241
vn 0.606249988079071 -0.7140420079231262 -0.3500779867172241
vn 0.7510300278663635 -0.4978179931640625 -0.43369901180267334
vn 0.6665549874305725 -0.7454149723052979 0
vn 0.7510300278663635 -0.4978179931640625 0.43369901180267334
vn 0.606249988079071 -0.7140420079231262 0.3500779867172241
vn 0.33326199650764465 -0.7453539967536926 0.5773490071296692
vn 0 -0.49769601225852966 0.8673359751701355
vn 0 -0.713949978351593 0.7001559734344482
vn -0.33326199650764465 -0.7453539967536926 0.5773490071296692
vn -0.7510300278663635 -0.4978179931640625 0.43369901180267334
vn -0.606249988079071 -0.7140420079231262 0.3500779867172241
vn -0.6665850281715393 -0.7454149723052979 0
vn -0.7510300278663635 -0.4978179931640625 -0.43369901180267334
vn -0.606249988079071 -0.7140420079231262 -0.3500779867172241
vn -0.33326199650764465 -0.7453539967536926 -0.5773490071296692
vn 0 0 -0.9999690055847168
vn 0 0 -0.9999690055847168
vn 0.4998930096626282 0 -0.8660539984703064
vn 0.4998930096626282 0 -0.8660539984703064
vn 0.8659629821777344 0 -0.5000759959220886
vn 0.8659629821777344 0 -0.5000759959220886
vn 1 0 0
vn 1 0 0
vn 1 0 0
vn 1 0 0
vn 0.8659629821777344 0 0.5000759959220886
vn 0.8659629821777344 0 0.5000759959220886
vn 0.4998930096626282 0 0.8660539984703064
vn 0.4998930096626282 0 0.8660539984703064
vn 0 0 0.9999690055847168
vn 0 0 0.9999690055847168
vn -0.4998930096626282 0 0.8660539984703064
vn -0.4998930096626282 0 0.8660539984703064
vn -0.8659629821777344 0 0.5000759959220886
vn -0.8659629821777344 0 0.5000759959220886
vn -1 0 0
vn -1 0 0
vn -0.8659629821777344 0 -0.5000759959220886
vn -0.8659629821777344 0 -0.5000759959220886
vn -0.4998930096626282 0 -0.8660539984703064
vn -0.4998930096626282 0 -0.8660539984703064
vn 0 0.5593429803848267 -0.8289129734039307
vn 0.4143800139427185 0.5593739748001099 -0.7178869843482971
vn 0.4143500030040741 0.5593739748001099 -0.7178869843482971
vn 0 0.5593429803848267 -0.8289129734039307
vn 0.7177649736404419 0.5594350099563599 -0.4144720137119293
vn 0.7177339792251587 0.5594350099563599 -0.41453298926353455
vn 0.8288220167160034 0.5594649910926819 0
vn 0.8288220167160034 0.5594649910926819 0
vn 0.8288220167160034 0.5594649910926819 0
vn 0.8288220167160034 0.5594649910926819 0
vn 0.7177649736404419 0.5594350099563599 0.4144720137119293
vn 0.7177339792251587 0.5594350099563599 0.41453298926353455
vn 0.4143800139427185 0.5593739748001099 0.7178869843482971
vn 0.4143500030040741 0.5593739748001099 0.7178869843482971
vn 0 0.5593429803848267 0.8289129734039307
vn 0 0.5593429803848267 0.8289129734039307
vn -0.4143800139427185 0.5593739748001099 0.7178869843482971
vn -0.4143500030040741 0.5593739748001099 0.7178869843482971
vn -0.7177649736404419 0.5594350099563599 0.4144720137119293
vn -0.7177339792251587 0.5594350099563599 0.41450199484825134
vn -0.8288220167160034 0.5594649910926819 0
vn -0.8288220167160034 0.5594649910926819 0
vn -0.7177649736404419 0.5594350099563599 -0.4144720137119293
vn -0.7177339792251587 0.5594350099563599 -0.41450199484825134
vn -0.4143800139427185 0.5593739748001099 -0.7178869843482971
vn -0.4143500030040741 0.5593739748001099 -0.7178869843482971
vn 0 1 0
vn 0 1 0
vn 0 1 0
vn 0 1 0
vn 0 1 0
vn 0 1 0
vn 0 1 0
vn 0 1 0
vn 0 1 0
vn 0 1 0
vn 0 1 0
vn 0 1 0
vn 0 1 0
f 5/5/5 8/8/8 7/7/7
f 6/6/6 5/5/5 7/7/7
f 6/6/6 4/4/4 5/5/5
f 1/1/1 4/4/4 6/6/6
f 2/2/2 4/4/4 1/1/1
f 3/3/3 2/2/2 1/1/1
f 3/3/3 26/26/26 2/2/2
f 25/25/25 26/26/26 3/3/3
f 23/23/23 26/26/26 25/25/25
f 24/24/24 23/23/23 25/25/25
f 24/24/24 22/22/22 23/23/23
f 21/21/21 22/22/22 24/24/24
f 19/19/19 22/22/22 21/21/21
f 20/20/20 19/19/19 21/21/21
f 20/20/20 18/18/18 19/19/19
f 17/17/17 18/18/18 20/20/20
f 15/15/15 18/18/18 17/17/17
f 16/16/16 15/15/15 17/17/17
f 16/16/16 14/14/14 15/15/15
f 13/13/13 14/14/14 16/16/16
f 9/9/9 14/14/14 13/13/13
f 11/11/11 9/9/9 13/13/13
f 11/11/11 10/10/10 9/9/9
f 12/12/12 10/10/10 11/11/11
f 29/29/29 28/28/28 27/27/27
f 46/46/46 27/27/27 28/28/28
f 29/29/29 31/31/31 30/30/30
f 31/31/31 29/29/29 27/27/27
f 27/27/27 46/46/46 45/45/45
f 46/46/46 44/44/44 45/45/45
f 43/43/43 45/45/45 44/44/44
f 31/31/31 27/27/27 48/48/48
f 48/48/48 50/50/50 31/31/31
f 49/49/49 51/51/51 50/50/50
f 50/50/50 48/48/48 49/49/49
f 49/49/49 48/48/48 47/47/47
f 66/66/66 47/47/47 48/48/48
f 64/64/64 48/48/48 27/27/27
f 64/64/64 66/66/66 48/48/48
f 27/27/27 45/45/45 64/64/64
f 66/66/66 64/64/64 65/65/65
f 63/63/63 65/65/65 64/64/64
f 61/61/61 63/63/63 64/64/64
f 61/61/61 64/64/64 45/45/45
f 63/63/63 61/61/61 62/62/62
f 60/60/60 62/62/62 61/61/61
f 45/45/45 43/43/43 42/42/42
f 45/45/45 42/42/42 61/61/61
f 43/43/43 41/41/41 42/42/42
f 40/40/40 42/42/42 41/41/41
f 60/60/60 61/61/61 58/58/58
f 58/58/58 61/61/61 42/42/42
f 60/60/60 58/58/58 59/59/59
f 57/57/57 59/59/59 58/58/58
f 40/40/40 39/39/39 42/42/42
f 42/42/42 39/39/39 58/58/58
f 40/40/40 38/38/38 39/39/39
f 37/37/37 39/39/39 38/38/38
f 57/57/57 58/58/58 55/55/55
f 55/55/55 58/58/58 39/39/39
f 57/57/57 55/55/55 56/56/56
f 54/54/54 56/56/56 55/55/55
f 37/37/37 36/36/36 39/39/39
f 39/39/39 36/36/36 55/55/55
f 37/37/37 35/35/35 36/36/36
f 55/55/55 53/53/53 54/54/54
f 54/54/54 53/53/53 52/52/52
f 53/53/53 55/55/55 36/36/36
f 34/34/34 36/36/36 35/35/35
f 36/36/36 32/32/32 53/53/53
f 36/36/36 34/34/34 32/32/32
f 34/34/34 33/33/33 32/32/32
f 69/69/69 68/68/68 67/67/67
f 92/92/92 67/67/67 68/68/68
f 67/67/67 70/70/70 69/69/69
f 68/68/68 91/91/91 92/92/92
f 71/71/71 69/69/69 70/70/70
f 90/90/90 92/92/92 91/91/91
f 70/70/70 72/72/72 71/71/71
f 91/91/91 89/89/89 90/90/90
f 73/73/73 71/71/71 72/72/72
f 72/72/72 74/74/74 73/73/73
f 88/88/88 90/90/90 89/89/89
f 89/89/89 87/87/87 88/88/88
f 86/86/86 88/88/88 87/87/87
f 87/87/87 85/85/85 86/86/86
f 84/84/84 86/86/86 85/85/85
f 85/85/85 83/83/83 84/84/84
f 82/82/82 84/84/84 83/83/83
f 83/83/83 81/81/81 82/82/82
f 80/80/80 82/82/82 81/81/81
f 81/81/81 79/79/79 80/80/80
f 78/78/78 80/80/80 79/79/79
f 79/79/79 77/77/77 78/78/78
f 75/75/75 78/78/78 77/77/77
f 77/77/77 76/76/76 75/75/75
f 95/95/95 94/94/94 93/93/93
f 96/96/96 93/93/93 94/94/94
f 97/97/97 94/94/94 95/95/95
f 118/118/118 93/93/93 96/96/96
f 95/95/95 98/98/98 97/97/97
f 96/96/96 117/117/117 118/118/118
f 97/97/97 98/98/98 99/99/99
f 100/100/100 99/99/99 98/98/98
f 118/118/118 117/117/117 116/116/116
f 115/115/115 116/116/116 117/117/117
f 116/116/116 115/115/115 114/114/114
f 113/113/113 114/114/114 115/115/115
f 114/114/114 113/113/113 112/112/112
f 111/111/111 112/112/112 113/113/113
f 110/110/110 112/112/112 111/111/111
f 111/111/111 109/109/109 110/110/110
f 110/110/110 109/109/109 108/108/108
f 107/107/107 108/108/108 109/109/109
f 106/106/106 108/108/108 107/107/107
f 107/107/107 105/105/105 106/106/106
f 106/106/106 105/105/105 104/104/104
f 103/103/103 104/104/104 105/105/105
f 101/101/101 104/104/104 103/103/103
f 103/103/103 102/102/102 101/101/101
f 121/121/121 120/120/120 119/119/119
f 120/120/120 131/131/131 119/119/119
f 122/122/122 121/121/121 119/119/119
f 131/131/131 130/130/130 119/119/119
f 123/123/123 122/122/122 119/119/119
f 130/130/130 129/129/129 119/119/119
f 124/124/124 123/123/123 119/119/119
f 129/129/129 128/128/128 119/119/119
f 125/125/125 124/124/124 119/119/119
f 128/128/128 127/127/127 119/119/119
f 126/126/126 125/125/125 119/119/119
f 127/127/127 126/126/126 119/119/119
