# VPXTOOL table OBJ file
# VPXTOOL OBJ file
# numVerts: 163 numFaces: 306
o Sling2
v -0.03791999816894531 -0.015664000064134598 -0.6934049725532532
v -0.03791999816894531 -0.015665000304579735 -0.4653249979019165
v -0.0948920026421547 -0.015665000304579735 -0.4653249979019165
v -0.0948920026421547 -0.015664000064134598 -0.6934049725532532
v -0.0948920026421547 -0.015664000064134598 -0.6934049725532532
v -0.0948920026421547 -0.015665000304579735 -0.4653249979019165
v -0.0948920026421547 -0.053745001554489136 -0.6934049725532532
v -0.0948920026421547 -0.053745999932289124 -0.4653249979019165
v -0.09489099681377411 -0.11450400203466415 -0.7693650126457214
v -0.09489099681377411 -0.11450400203466415 -0.7313650250434875
v -0.03791999816894531 -0.11450400203466415 -0.7693650126457214
v 0.09508000314235687 -0.015665000304579735 -0.4653249979019165
v 0.03807999938726425 -0.015664000064134598 -0.6934049725532532
v 0.09508000314235687 -0.015664000064134598 -0.6934049725532532
v 0.03807999938726425 -0.015665000304579735 -0.4653249979019165
v 0.09508000314235687 -0.015665000304579735 -0.4653249979019165
v 0.09508000314235687 -0.015664000064134598 -0.6934049725532532
v 0.09508000314235687 -0.053745001554489136 -0.6934049725532532
v 0.09508000314235687 -0.053745999932289124 -0.4653249979019165
v -0.09489099681377411 -0.06049399822950363 -0.7119200229644775
v -0.09489099681377411 -0.027514999732375145 -0.7309610247612
v -0.03791999816894531 -0.027514999732375145 -0.7309610247612
v -0.03791999816894531 -0.015664000064134598 -0.6934049725532532
v -0.0948920026421547 -0.015664000064134598 -0.6934049725532532
v -0.09489099681377411 -0.027514999732375145 -0.7309610247612
v 0.09508000314235687 -0.06049399822950363 -0.7119200229644775
v 0.09508000314235687 -0.027514999732375145 -0.7309610247612
v 0.03807999938726425 -0.027514999732375145 -0.7309610247612
v 0.09508000314235687 -0.015664000064134598 -0.6934049725532532
v 0.03807999938726425 -0.015664000064134598 -0.6934049725532532
v 0.09508000314235687 -0.027514999732375145 -0.7309610247612
v -0.09489099681377411 -0.08350399881601334 -0.7288789749145508
v -0.09489099681377411 -0.06741099804639816 -0.7633919715881348
v -0.03791999816894531 -0.06741099804639816 -0.7633919715881348
v -0.03791999816894531 -0.027514999732375145 -0.7309610247612
v -0.09489099681377411 -0.027514999732375145 -0.7309610247612
v -0.09489099681377411 -0.06741099804639816 -0.7633919715881348
v 0.09508000314235687 -0.08350399881601334 -0.7288789749145508
v 0.09508000314235687 -0.06741099804639816 -0.7633919715881348
v 0.03807999938726425 -0.06741099804639816 -0.7633919715881348
v 0.09508000314235687 -0.027514999732375145 -0.7309610247612
v 0.03807999938726425 -0.027514999732375145 -0.7309610247612
v 0.09508000314235687 -0.06741099804639816 -0.7633919715881348
v -0.09489099681377411 -0.11450400203466415 -0.7693650126457214
v -0.09489099681377411 -0.11450400203466415 -0.7313650250434875
v -0.03791999816894531 -0.11450400203466415 -0.7693650126457214
v -0.03791999816894531 -0.06741099804639816 -0.7633919715881348
v -0.09489099681377411 -0.06741099804639816 -0.7633919715881348
v -0.09489099681377411 -0.11450400203466415 -0.7693650126457214
v 0.09508000314235687 -0.11450400203466415 -0.7693650126457214
v 0.09508000314235687 -0.11450400203466415 -0.7313650250434875
v 0.03807999938726425 -0.11450400203466415 -0.7693650126457214
v 0.09508000314235687 -0.06741099804639816 -0.7633919715881348
v 0.03807999938726425 -0.06741099804639816 -0.7633919715881348
v 0.09508000314235687 -0.11450400203466415 -0.7693650126457214
v 0.03807999938726425 -0.015664000064134598 -0.6934049725532532
v 0.03807999938726425 -0.015665000304579735 -0.4653249979019165
v 0.03807999938726425 0.10783500224351883 -0.4653249979019165
v 0.03807999938726425 0.0793360024690628 -0.7503790259361267
v 0.03807999938726425 0.060336001217365265 -0.7693650126457214
v 0.03807999938726425 -0.027514999732375145 -0.7309610247612
v 0.03807999938726425 -0.06741099804639816 -0.7633919715881348
v -0.03791999816894531 -0.015664000064134598 -0.6934049725532532
v -0.03791999816894531 -0.027514999732375145 -0.7309610247612
v -0.03791999816894531 0.060336001217365265 -0.7693650126457214
v -0.03791999816894531 -0.06741099804639816 -0.7633919715881348
v 0.01907999999821186 0.0793360024690628 -0.7503790259361267
v 0.03807999938726425 0.10783500224351883 -0.4653249979019165
v 0.01907999999821186 0.10783500224351883 -0.4653249979019165
v -0.03791999816894531 0.0793360024690628 -0.7503790259361267
v -0.03791999816894531 0.060336001217365265 -0.7693650126457214
v -0.01892000064253807 0.060336001217365265 -0.7693650126457214
v -0.01892000064253807 0.0793360024690628 -0.7503790259361267
v -0.03791999816894531 0.10783500224351883 -0.4653249979019165
v -0.03791999816894531 0.0793360024690628 -0.7503790259361267
v 0.03807999938726425 -0.11450400203466415 -0.7693650126457214
v -0.09489099681377411 -0.11450400203466415 -0.7313650250434875
v -0.09489099681377411 -0.08350399881601334 -0.7288789749145508
v 0.09508000314235687 -0.11450400203466415 -0.7313650250434875
v 0.09508000314235687 -0.08350399881601334 -0.7288789749145508
v 0.09508000314235687 -0.08350399881601334 -0.7288789749145508
v -0.09489099681377411 -0.08350399881601334 -0.7288789749145508
v -0.09489099681377411 -0.06049399822950363 -0.7119200229644775
v 0.09508000314235687 -0.06049399822950363 -0.7119200229644775
v 0.09508000314235687 -0.06049399822950363 -0.7119200229644775
v -0.09489099681377411 -0.06049399822950363 -0.7119200229644775
v -0.0948920026421547 -0.053745001554489136 -0.6934049725532532
v 0.09508000314235687 -0.053745001554489136 -0.6934049725532532
v -0.0948920026421547 -0.053745001554489136 -0.6934049725532532
v -0.0948920026421547 -0.053745999932289124 -0.4653249979019165
v 0.09508000314235687 -0.053745001554489136 -0.6934049725532532
v 0.09508000314235687 -0.053745999932289124 -0.4653249979019165
v 0.03807999938726425 -0.015665000304579735 -0.4653249979019165
v 0.09508000314235687 -0.015665000304579735 -0.4653249979019165
v 0.09508000314235687 -0.053745999932289124 -0.4653249979019165
v 0.01907999999821186 -0.02518399991095066 -0.7693650126457214
v -0.01892000064253807 -0.02518399991095066 -0.7693650126457214
v -0.03791999816894531 -0.11450400203466415 -0.7693650126457214
v -0.01892000064253807 0.0793360024690628 -0.7503790259361267
v 0.01907999999821186 0.060336001217365265 -0.7693650126457214
v 0.03807999938726425 0.060336001217365265 -0.7693650126457214
v 0.03807999938726425 0.0793360024690628 -0.7503790259361267
v 0.01907999999821186 0.0793360024690628 -0.7503790259361267
v -0.01892000064253807 0.10783500224351883 -0.4653249979019165
v 0.03807999938726425 0.0793360024690628 -0.7503790259361267
v -0.03791999816894531 -0.015665000304579735 -0.4653249979019165
v -0.03791999816894531 0.10783500224351883 -0.4653249979019165
v -0.01892000064253807 0.10783500224351883 -0.4653249979019165
v 0.01907999999821186 0.10783500224351883 -0.4653249979019165
v 0.03807999938726425 0.10783500224351883 -0.4653249979019165
v -0.01892000064253807 -0.02518399991095066 -0.7693650126457214
v 0.01907999999821186 -0.02518399991095066 -0.7693650126457214
v 0.01907999999821186 0.060336001217365265 -0.7693650126457214
v -0.01892000064253807 0.060336001217365265 -0.7693650126457214
v 0.01907999999821186 0.060336001217365265 -0.7693650126457214
v 0.01907999999821186 0.0793360024690628 -0.7503790259361267
v -0.01892000064253807 0.060336001217365265 -0.7693650126457214
v -0.01892000064253807 0.0793360024690628 -0.7503790259361267
v 0.01907999999821186 0.10783500224351883 -0.4653249979019165
v -0.01892000064253807 0.0793360024690628 -0.7503790259361267
v 0.01907999999821186 0.0793360024690628 -0.7503790259361267
v -0.01892000064253807 0.10783500224351883 -0.4653249979019165
v 0.01907999999821186 -0.015665000304579735 -0.4653249979019165
v -0.01892000064253807 -0.015665000304579735 -0.4653249979019165
v -0.01892000064253807 -0.015665000304579735 -0.31588301062583923
v 0.01907999999821186 -0.015665000304579735 -0.31588301062583923
v -0.01892000064253807 -0.015665000304579735 -0.4653249979019165
v -0.01892000064253807 0.10783500224351883 -0.4653249979019165
v -0.01892000064253807 0.12211500108242035 -0.330375999212265
v -0.01892000064253807 -0.015665000304579735 -0.31588301062583923
v 0.01907999999821186 0.12211500108242035 -0.330375999212265
v 0.01907999999821186 -0.015665000304579735 -0.4653249979019165
v 0.01907999999821186 -0.015665000304579735 -0.31588301062583923
v 0.01907999999821186 0.10783500224351883 -0.4653249979019165
v 0.01907999999821186 0.12211500108242035 -0.330375999212265
v -0.01892000064253807 0.12211500108242035 -0.330375999212265
v -0.03791999816894531 0.0793360024690628 -0.7503790259361267
v -0.03791999816894531 0.10783500224351883 -0.4653249979019165
v -0.03791999816894531 -0.015665000304579735 -0.4653249979019165
v 0.09508000314235687 -0.11450400203466415 -0.7313650250434875
v 0.09508000314235687 -0.11450400203466415 -0.7693650126457214
v 0.03807999938726425 -0.11450400203466415 -0.7693650126457214
v -0.03791999816894531 0.060336001217365265 -0.7693650126457214
v 0.03807999938726425 0.060336001217365265 -0.7693650126457214
v -0.01892000064253807 0.060336001217365265 -0.7693650126457214
v 0.01907999999821186 0.060336001217365265 -0.7693650126457214
v 0.03807999938726425 -0.11450400203466415 -0.7693650126457214
v -0.03791999816894531 -0.11450400203466415 -0.7693650126457214
v -0.01892000064253807 -0.015665000304579735 -0.4653249979019165
v 0.01907999999821186 -0.015665000304579735 -0.4653249979019165
v -0.0948920026421547 -0.053745999932289124 -0.4653249979019165
v -0.0948920026421547 -0.015665000304579735 -0.4653249979019165
v -0.01892000064253807 -0.015665000304579735 0.09675099700689316
v 0.01907999999821186 -0.015665000304579735 0.09675099700689316
v -0.01899999938905239 0.15151500701904297 0.13475100696086884
v -0.01899999938905239 0.15151500701904297 0.13475100696086884
v -0.01892000064253807 -0.015665000304579735 0.09675099700689316
v -0.01892000064253807 -0.015665000304579735 -0.31588301062583923
v 0.01899999938905239 0.15151500701904297 0.13475100696086884
v 0.01907999999821186 -0.015665000304579735 0.09675099700689316
v 0.01899999938905239 0.15151500701904297 0.13475100696086884
v -0.01899999938905239 0.15151500701904297 0.13475100696086884
v -0.01892000064253807 0.12211500108242035 -0.330375999212265
vt 0.8613219857215881 0.1568700075149536
vt 0.8613219857215881 0
vt 0.8072500228881836 0
vt 0.8072500228881836 0.1568700075149536
vt 0.737405002117157 0.7835019826889038
vt 0.737405002117157 0.6175199747085571
vt 0.7131590247154236 0.7835440039634705
vt 0.7131590247154236 0.617527961730957
vt 0.8072500228881836 0.2982890009880066
vt 0.8072500228881836 0.31317102909088135
vt 0.8613219857215881 0.2984060049057007
vt 0.9794399738311768 0
vt 0.9256290197372437 0.1568700075149536
vt 0.9794399738311768 0.1568700075149536
vt 0.9256290197372437 0
vt 0.737405002117157 0.6175199747085571
vt 0.737405002117157 0.7835019826889038
vt 0.7131590247154236 0.7835440039634705
vt 0.7131590247154236 0.617527961730957
vt 0.7077969908714294 0.8087049722671509
vt 0.7279890179634094 0.8203389644622803
vt 0.8613219857215881 0.20123600959777832
vt 0.8613219857215881 0.1568700075149536
vt 0.8072500228881836 0.1568700075149536
vt 0.8072500228881836 0.20123600959777832
vt 0.7077969908714294 0.8087049722671509
vt 0.7279890179634094 0.8203389644622803
vt 0.9256290197372437 0.20123600959777832
vt 0.9794399738311768 0.1568700075149536
vt 0.9256290197372437 0.1568700075149536
vt 0.9794399738311768 0.20123600959777832
vt 0.6895149946212769 0.8313050270080566
vt 0.7022590041160583 0.8521490097045898
vt 0.8613219857215881 0.2634999752044678
vt 0.8613219857215881 0.20123600959777832
vt 0.8072500228881836 0.20123600959777832
vt 0.8072500228881836 0.2634999752044678
vt 0.6895149946212769 0.8313050270080566
vt 0.7022590041160583 0.8521490097045898
vt 0.9256290197372437 0.2634999752044678
vt 0.9794399738311768 0.20123600959777832
vt 0.9256290197372437 0.20123600959777832
vt 0.9794399738311768 0.2634999752044678
vt 0.6699219942092896 0.858178973197937
vt 0.6701480150222778 0.8337429761886597
vt 0.8613219857215881 0.2984060049057007
vt 0.8613219857215881 0.2634999752044678
vt 0.8072500228881836 0.2634999752044678
vt 0.8072500228881836 0.2982890009880066
vt 0.6699219942092896 0.858178973197937
vt 0.6701480150222778 0.8337429761886597
vt 0.9256290197372437 0.2984060049057007
vt 0.9794399738311768 0.2634999752044678
vt 0.9256290197372437 0.2634999752044678
vt 0.9794399738311768 0.2984060049057007
vt 0.7599520087242126 0.8041989803314209
vt 0.7599520087242126 0.6382179856300354
vt 0.852105975151062 0.6382179856300354
vt 0.829463005065918 0.8600829839706421
vt 0.8143680095672607 0.8788759708404541
vt 0.7505369782447815 0.8410360217094421
vt 0.724806010723114 0.8728470206260681
vt 0.7599520087242126 0.8041989803314209
vt 0.7505369782447815 0.8410360217094421
vt 0.8143680095672607 0.8788759708404541
vt 0.724806010723114 0.8728470206260681
vt 0.9110689759254456 0.8607379794120789
vt 0.9256290197372437 0.6378139853477478
vt 0.9110689759254456 0.6378139853477478
vt 0.8612189888954163 0.8607379794120789
vt 0.8612189888954163 0.8781020045280457
vt 0.8761399984359741 0.8780779838562012
vt 0.8761399984359741 0.8607379794120789
vt 0.8612189888954163 0.6378139853477478
vt 0.8612189888954163 0.8607379794120789
vt 0.9256290197372437 0.2984060049057007
vt 0.8072500228881836 0.31317102909088135
vt 0.8072500228881836 0.3331189751625061
vt 0.9794399738311768 0.31317102909088135
vt 0.9794399738311768 0.3331189751625061
vt 0.9794399738311768 0.3331189751625061
vt 0.8072500228881836 0.3331189751625061
vt 0.8072500228881836 0.35564202070236206
vt 0.9794399738311768 0.35564202070236206
vt 0.9794399738311768 0.35564202070236206
vt 0.8072500228881836 0.35564202070236206
vt 0.8072500228881836 0.3683199882507324
vt 0.9794399738311768 0.3683199882507324
vt 0.8072500228881836 0.3683199882507324
vt 0.8072500228881836 0.5474840402603149
vt 0.9794399738311768 0.3683199882507324
vt 0.9794399738311768 0.5474840402603149
vt 0.9256290197372437 0.571819007396698
vt 0.9794399738311768 0.571819007396698
vt 0.9794399738311768 0.5474840402603149
vt 0.9110689759254456 0.940090000629425
vt 0.8761399984359741 0.940090000629425
vt 0.8612189888954163 1
vt 0.8761399984359741 0.8607379794120789
vt 0.9110689759254456 0.8780779838562012
vt 0.9257320165634155 0.8782020211219788
vt 0.9256290197372437 0.8607379794120789
vt 0.9110689759254456 0.8607379794120789
vt 0.8761399984359741 0.6378139853477478
vt 0.9256290197372437 0.8607379794120789
vt 0.8612189888954163 0.571819007396698
vt 0.8612189888954163 0.6378139853477478
vt 0.8761399984359741 0.6378139853477478
vt 0.9110689759254456 0.6378139853477478
vt 0.9256290197372437 0.6378139853477478
vt 0.061726998537778854 0
vt 0.0002730000123847276 0
vt 0.0002730000123847276 0.11236101388931274
vt 0.061726998537778854 0.11236101388931274
vt 0.0002730000123847276 0.11236101388931274
vt 0.0002730000123847276 0.13736897706985474
vt 0.061726998537778854 0.11236101388931274
vt 0.061726998537778854 0.13736897706985474
vt 0.0002730000123847276 0.4779670238494873
vt 0.061726998537778854 0.13736897706985474
vt 0.0002730000123847276 0.13736897706985474
vt 0.061726998537778854 0.4779670238494873
vt 0.5836899876594543 0.8007810115814209
vt 0.5836899876594543 0.75661700963974
vt 0.41104501485824585 0.75661700963974
vt 0.41104501485824585 0.8007810115814209
vt 0.5836899876594543 0.75661700963974
vt 0.5836899876594543 0.6139410138130188
vt 0.4278489947319031 0.5974439978599548
vt 0.41104501485824585 0.75661700963974
vt 0.427700012922287 0.9602590203285217
vt 0.5836899876594543 0.8007810115814209
vt 0.41104501485824585 0.8007810115814209
vt 0.5836899876594543 0.9437620043754578
vt 0.0002730000123847276 0.6391890048980713
vt 0.061726998537778854 0.6391890048980713
vt 0.829463005065918 0.8600829839706421
vt 0.852105975151062 0.6382179856300354
vt 0.7599520087242126 0.6382179856300354
vt 0.9794399738311768 0.31317102909088135
vt 0.9794399738311768 0.2984060049057007
vt 0.9257320165634155 1
vt 0.8612189888954163 0.8781020045280457
vt 0.9257320165634155 0.8782020211219788
vt 0.8761399984359741 0.8780779838562012
vt 0.9110689759254456 0.8780779838562012
vt 0.6924700140953064 0.8788759708404541
vt 0.6924700140953064 0.8788759708404541
vt 0.8761399984359741 0.571819007396698
vt 0.9110689759254456 0.571819007396698
vt 0.8072500228881836 0.5474840402603149
vt 0.8072500228881836 0.571819007396698
vt 0.12278299778699875 0.75661700963974
vt 0.12278299778699875 0.8007810115814209
vt 0.07894299924373627 0.5634790062904358
vt 0.07894299924373627 0.5634790062904358
vt 0.12278299778699875 0.75661700963974
vt 0.41104501485824585 0.75661700963974
vt 0.07879500091075897 0.9942240118980408
vt 0.12278299778699875 0.8007810115814209
vt 0.0002730000123847276 1
vt 0.061726998537778854 1
vt 0.061726998537778854 0.6391890048980713
vn 0 1 0
vn 0 1 0
vn 0 1 0
vn 0 1 0
vn -1 0 -0
vn -1 0 -0
vn -1 0 -0
vn -1 0 -0
vn 0 -1 0
vn 0 -1 0
vn 0 -1 0
vn 0 1 0
vn 0 1 0
vn 0 1 0
vn 0 1 0
vn 1 0 0
vn 1 0 0
vn 1 0 0
vn 1 0 0
vn -1 0 -0
vn -1 0 -0
vn 0 0.9535999894142151 -0.30090001225471497
vn 0 0.9535999894142151 -0.30090001225471497
vn 0 0.9535999894142151 -0.30090001225471497
vn 0 0.9535999894142151 -0.30090001225471497
vn 1 0 0
vn 1 0 0
vn 0 0.9535999894142151 -0.30090001225471497
vn 0 0.9535999894142151 -0.30090001225471497
vn 0 0.9535999894142151 -0.30090001225471497
vn 0 0.9535999894142151 -0.30090001225471497
vn -1 0 -0
vn -1 0 -0
vn 0 0.6308000087738037 -0.7760000228881836
vn 0 0.6308000087738037 -0.7760000228881836
vn 0 0.6308000087738037 -0.7760000228881836
vn 0 0.6308000087738037 -0.7760000228881836
vn 1 0 0
vn 1 0 0
vn 0 0.6308000087738037 -0.7760000228881836
vn 0 0.6308000087738037 -0.7760000228881836
vn 0 0.6308000087738037 -0.7760000228881836
vn 0 0.6308000087738037 -0.7760000228881836
vn -1 0 -0
vn -1 0 -0
vn 0 0.1257999986410141 -0.9921000003814697
vn 0 0.1257999986410141 -0.9921000003814697
vn 0 0.1257999986410141 -0.9921000003814697
vn 0 0.1257999986410141 -0.9921000003814697
vn 1 0 0
vn 1 0 0
vn 0 0.1257999986410141 -0.9921000003814697
vn 0 0.1257999986410141 -0.9921000003814697
vn 0 0.1257999986410141 -0.9921000003814697
vn 0 0.1257999986410141 -0.9921000003814697
vn 1 0 0
vn 1 0 0
vn 1 0 0
vn 1 0 0
vn 1 0 0
vn 1 0 0
vn 1 0 0
vn -1 0 -0
vn -1 0 -0
vn -1 0 -0
vn -1 0 -0
vn 0 0.9950000047683716 -0.09950000047683716
vn 0 0.9950000047683716 -0.09950000047683716
vn 0 0.9951000213623047 -0.09889999777078629
vn 0 0.7067999839782715 -0.7074000239372253
vn 0 0.7067999839782715 -0.7074000239372253
vn 0 0.7067999839782715 -0.7074000239372253
vn 0 0.9950000047683716 -0.09950000047683716
vn 0 0.9950000047683716 -0.09950000047683716
vn 0 0.9950000047683716 -0.09950000047683716
vn 0 -1 0
vn 0 -0.07989999651908875 0.9968000054359436
vn 0 -0.07989999651908875 0.9968000054359436
vn 0 -0.07989999651908875 0.9968000054359436
vn 0 -0.07989999651908875 0.9968000054359436
vn 0 -0.5932999849319458 0.8050000071525574
vn 0 -0.5932999849319458 0.8050000071525574
vn 0 -0.5932999849319458 0.8050000071525574
vn 0 -0.5932999849319458 0.8050000071525574
vn 0 -0.9394999742507935 0.3425000011920929
vn 0 -0.9394999742507935 0.3425000011920929
vn 0 -0.9394999742507935 0.3425000011920929
vn 0 -0.9394999742507935 0.3425000011920929
vn 0 -1 0
vn 0 -1 0
vn 0 -1 0
vn 0 -1 0
vn 0 0 1
vn 0 0 1
vn 0 0 1
vn 0 0 -1
vn 0 0 -1
vn 0 0 -1
vn 0 0.7067999839782715 -0.7074000239372253
vn 0 0.7067999839782715 -0.7074000239372253
vn 0 0.7067999839782715 -0.7074000239372253
vn 0 0.7067999839782715 -0.7074000239372253
vn 0 0.7067999839782715 -0.7074000239372253
vn -0 0.9944999814033508 -0.10440000146627426
vn 0 0.9950000047683716 -0.09950000047683716
vn 0 0 1
vn 0 0 1
vn 0 0 1
vn 0 0 1
vn 0 0 1
vn 0 0 -1
vn 0 0 -1
vn 0 0 -1
vn 0 0 -1
vn 0 0.7067999839782715 -0.7074000239372253
vn 0 0.7067999839782715 -0.7074000239372253
vn 0 0.7067999839782715 -0.7074000239372253
vn 0 0.7067999839782715 -0.7074000239372253
vn 0 0.9951000213623047 -0.09889999777078629
vn 0 0.9950000047683716 -0.09950000047683716
vn 0 0.9950000047683716 -0.09950000047683716
vn -0 0.9944999814033508 -0.10440000146627426
vn 0 -1 0
vn 0 -1 0
vn 0 -1 0
vn 0 -1 0
vn -1 0 -0
vn -1 0 -0
vn -1 -0 -0.00009999999747378752
vn -1 -0 -0.00009999999747378752
vn 1 0 0.00009999999747378752
vn 1 0 0
vn 1 0.00009999999747378752 0.00009999999747378752
vn 1 0 0
vn 0 0.9961000084877014 -0.08829999715089798
vn -0.00019999999494757503 0.9968000054359436 -0.08049999922513962
vn -1 0 -0
vn -1 0 -0
vn -1 0 -0
vn 0 -1 0
vn 0 -1 0
vn 0 0 -1
vn 0 0 -1
vn 0 0 -1
vn 0 0 -1
vn 0 0 -1
vn 1 0 0
vn -1 0 -0
vn 0 0 1
vn 0 0 1
vn 0 0 1
vn 0 0 1
vn 0 -1 0
vn 0 -1 0
vn -1 -0 -0.00019999999494757503
vn -1 -0.0005000000237487257 -0
vn -1 -0.0005000000237487257 -0
vn -1 -0.0005000000237487257 -0
vn 1 0.00039999998989515007 0
vn 1 0.0005000000237487257 0
vn 0 0.9980000257492065 -0.06310000270605087
vn 0 0.9980000257492065 -0.06310000270605087
vn 0 0.9980000257492065 -0.06310000270605087
f 158/158/158 157/157/157 156/156/156
f 3/3/3 2/2/2 1/1/1
f 4/4/4 3/3/3 1/1/1
f 7/7/7 6/6/6 5/5/5
f 8/8/8 6/6/6 7/7/7
f 7/7/7 5/5/5 20/20/20
f 20/20/20 5/5/5 21/21/21
f 20/20/20 21/21/21 32/32/32
f 32/32/32 21/21/21 33/33/33
f 32/32/32 33/33/33 44/44/44
f 45/45/45 32/32/32 44/44/44
f 11/11/11 10/10/10 9/9/9
f 11/11/11 76/76/76 10/10/10
f 76/76/76 140/140/140 10/10/10
f 76/76/76 141/141/141 140/140/140
f 14/14/14 13/13/13 12/12/12
f 15/15/15 12/12/12 13/13/13
f 18/18/18 17/17/17 16/16/16
f 19/19/19 18/18/18 16/16/16
f 17/17/17 18/18/18 26/26/26
f 27/27/27 17/17/17 26/26/26
f 27/27/27 26/26/26 38/38/38
f 39/39/39 27/27/27 38/38/38
f 39/39/39 38/38/38 50/50/50
f 50/50/50 38/38/38 51/51/51
f 24/24/24 23/23/23 22/22/22
f 25/25/25 24/24/24 22/22/22
f 30/30/30 29/29/29 28/28/28
f 28/28/28 29/29/29 31/31/31
f 36/36/36 35/35/35 34/34/34
f 37/37/37 36/36/36 34/34/34
f 42/42/42 41/41/41 40/40/40
f 40/40/40 41/41/41 43/43/43
f 48/48/48 47/47/47 46/46/46
f 49/49/49 48/48/48 46/46/46
f 54/54/54 53/53/53 52/52/52
f 52/52/52 53/53/53 55/55/55
f 58/58/58 57/57/57 56/56/56
f 56/56/56 59/59/59 58/58/58
f 56/56/56 60/60/60 59/59/59
f 56/56/56 61/61/61 60/60/60
f 61/61/61 62/62/62 60/60/60
f 62/62/62 147/147/147 60/60/60
f 65/65/65 64/64/64 63/63/63
f 65/65/65 66/66/66 64/64/64
f 148/148/148 66/66/66 65/65/65
f 137/137/137 65/65/65 63/63/63
f 138/138/138 137/137/137 63/63/63
f 138/138/138 63/63/63 139/139/139
f 69/69/69 68/68/68 67/67/67
f 67/67/67 68/68/68 105/105/105
f 72/72/72 71/71/71 70/70/70
f 99/99/99 72/72/72 70/70/70
f 75/75/75 74/74/74 73/73/73
f 104/104/104 73/73/73 74/74/74
f 79/79/79 78/78/78 77/77/77
f 79/79/79 80/80/80 78/78/78
f 83/83/83 82/82/82 81/81/81
f 81/81/81 84/84/84 83/83/83
f 87/87/87 86/86/86 85/85/85
f 85/85/85 88/88/88 87/87/87
f 91/91/91 90/90/90 89/89/89
f 90/90/90 91/91/91 92/92/92
f 95/95/95 94/94/94 93/93/93
f 110/110/110 109/109/109 93/93/93
f 93/93/93 109/109/109 150/150/150
f 150/150/150 95/95/95 93/93/93
f 95/95/95 150/150/150 149/149/149
f 151/151/151 95/95/95 149/149/149
f 106/106/106 151/151/151 149/149/149
f 152/152/152 151/151/151 106/106/106
f 149/149/149 108/108/108 106/106/106
f 108/108/108 107/107/107 106/106/106
f 98/98/98 97/97/97 96/96/96
f 98/98/98 143/143/143 97/97/97
f 143/143/143 145/145/145 97/97/97
f 96/96/96 142/142/142 98/98/98
f 96/96/96 144/144/144 142/142/142
f 144/144/144 96/96/96 146/146/146
f 102/102/102 101/101/101 100/100/100
f 102/102/102 100/100/100 103/103/103
f 113/113/113 112/112/112 111/111/111
f 113/113/113 111/111/111 114/114/114
f 117/117/117 116/116/116 115/115/115
f 117/117/117 118/118/118 116/116/116
f 121/121/121 120/120/120 119/119/119
f 119/119/119 120/120/120 122/122/122
f 135/135/135 119/119/119 122/122/122
f 122/122/122 136/136/136 135/135/135
f 161/161/161 135/135/135 136/136/136
f 163/163/163 162/162/162 161/161/161
f 125/125/125 124/124/124 123/123/123
f 123/123/123 126/126/126 125/125/125
f 153/153/153 125/125/125 126/126/126
f 126/126/126 154/154/154 153/153/153
f 129/129/129 128/128/128 127/127/127
f 127/127/127 130/130/130 129/129/129
f 155/155/155 129/129/129 130/130/130
f 133/133/133 132/132/132 131/131/131
f 134/134/134 131/131/131 132/132/132
f 131/131/131 159/159/159 133/133/133
f 160/160/160 133/133/133 159/159/159
