# VPXTOOL table OBJ file
# VPXTOOL OBJ file
# numVerts: 144 numFaces: 396
o PegMetalT3
v 0.04376000165939331 0.005040000192821026 -0.07200399786233902
v 0.0010100000072270632 0.11896000057458878 -0.08345499634742737
v 0.0010100000072270632 0.005040000192821026 -0.08345499634742737
v 0.04376000165939331 0.11896000057458878 -0.07200399786233902
v 0.07505500316619873 0.11896000057458878 -0.04071800038218498
v 0.07505500316619873 0.005040000192821026 -0.04071800038218498
v 0.08651000261306763 0.005040000192821026 0.002019000006839633
v 0.08651000261306763 0.11896000057458878 0.002019000006839633
v 0.07505500316619873 0.11896000057458878 0.04475700110197067
v 0.08651000261306763 0.11896000057458878 0.002019000006839633
v 0.08651000261306763 0.005040000192821026 0.002019000006839633
v 0.07505500316619873 0.005040000192821026 0.04475700110197067
v 0.04376000165939331 0.005040000192821026 0.07604199647903442
v 0.04376000165939331 0.11896000057458878 0.07604199647903442
v 0.0010100000072270632 0.11896000057458878 0.08749400079250336
v 0.0010100000072270632 0.005040000192821026 0.08749400079250336
v -0.04174000024795532 0.005040000192821026 0.07604199647903442
v -0.04174000024795532 0.11896000057458878 0.07604199647903442
v -0.07303600013256073 0.11896000057458878 0.04475700110197067
v -0.07303600013256073 0.005040000192821026 0.04475700110197067
v -0.08449000120162964 0.005040000192821026 0.002019000006839633
v -0.08449000120162964 0.11896000057458878 0.002019000006839633
v -0.07303600013256073 0.11896000057458878 -0.04071800038218498
v -0.07303600013256073 0.005040000192821026 -0.04071800038218498
v -0.04174000024795532 0.005040000192821026 -0.07200399786233902
v -0.04174000024795532 0.11896000057458878 -0.07200399786233902
v 0.0010100000072270632 0.2709600031375885 -0.04670099914073944
v 0.0010100000072270632 0.11896000057458878 -0.04670099914073944
v 0.025376999750733376 0.11896000057458878 -0.04017399996519089
v 0.025376999750733376 0.2709600031375885 -0.04017399996519089
v 0.04321499913930893 0.11896000057458878 -0.02234099991619587
v 0.04321499913930893 0.2709600031375885 -0.02234099991619587
v 0.04974500089883804 0.11896000057458878 0.002019000006839633
v 0.04974500089883804 0.2709600031375885 0.002019000006839633
v 0.04974500089883804 0.2709600031375885 0.002019000006839633
v 0.04974500089883804 0.11896000057458878 0.002019000006839633
v 0.04321499913930893 0.11896000057458878 0.02638000063598156
v 0.04321499913930893 0.2709600031375885 0.02638000063598156
v 0.025376999750733376 0.11896000057458878 0.04421300068497658
v 0.025376999750733376 0.2709600031375885 0.04421300068497658
v 0.0010100000072270632 0.11896000057458878 0.05073999986052513
v 0.0010100000072270632 0.2709600031375885 0.05073999986052513
v -0.023358000442385674 0.11896000057458878 0.04421300068497658
v -0.023358000442385674 0.2709600031375885 0.04421300068497658
v -0.04119599983096123 0.11896000057458878 0.02638000063598156
v -0.04119599983096123 0.2709600031375885 0.02638000063598156
v -0.047724999487400055 0.11896000057458878 0.002019000006839633
v -0.047724999487400055 0.2709600031375885 0.002019000006839633
v -0.04119599983096123 0.11896000057458878 -0.02234099991619587
v -0.04119599983096123 0.2709600031375885 -0.02234099991619587
v -0.023358000442385674 0.11896000057458878 -0.04017399996519089
v -0.023358000442385674 0.2709600031375885 -0.04017399996519089
v 0.0010100000072270632 0.5749599933624268 -0.051573000848293304
v 0.0010100000072270632 0.38495999574661255 -0.051573000848293304
v 0.027814000844955444 0.38495999574661255 -0.04439299926161766
v 0.027814000844955444 0.5749599933624268 -0.04439299926161766
v 0.04743599891662598 0.38495999574661255 -0.0247770007699728
v 0.04743599891662598 0.5749599933624268 -0.0247770007699728
v 0.054618000984191895 0.38495999574661255 0.002019000006839633
v 0.054618000984191895 0.5749599933624268 0.002019000006839633
v 0.054618000984191895 0.5749599933624268 0.002019000006839633
v 0.054618000984191895 0.38495999574661255 0.002019000006839633
v 0.04743599891662598 0.38495999574661255 0.028815999627113342
v 0.04743599891662598 0.5749599933624268 0.028815999627113342
v 0.027814000844955444 0.38495999574661255 0.04843199998140335
v 0.027814000844955444 0.5749599933624268 0.04843199998140335
v 0.0010100000072270632 0.38495999574661255 0.055612001568078995
v 0.0010100000072270632 0.5749599933624268 0.055612001568078995
v -0.025794999673962593 0.38495999574661255 0.04843199998140335
v -0.025794999673962593 0.5749599933624268 0.04843199998140335
v -0.045416999608278275 0.38495999574661255 0.028815999627113342
v -0.045416999608278275 0.5749599933624268 0.028815999627113342
v -0.05259900167584419 0.38495999574661255 0.002019000006839633
v -0.05259900167584419 0.5749599933624268 0.002019000006839633
v -0.045416999608278275 0.38495999574661255 -0.0247770007699728
v -0.045416999608278275 0.5749599933624268 -0.0247770007699728
v -0.025794999673962593 0.38495999574661255 -0.04439299926161766
v -0.025794999673962593 0.5749599933624268 -0.04439299926161766
v 0.0010100000072270632 0.5749599933624268 0.002019000006839633
v 0.0010100000072270632 0.5749599933624268 -0.051573000848293304
v 0.027814000844955444 0.5749599933624268 -0.04439299926161766
v 0.04743599891662598 0.5749599933624268 -0.0247770007699728
v 0.054618000984191895 0.5749599933624268 0.002019000006839633
v 0.04743599891662598 0.5749599933624268 0.028815999627113342
v 0.027814000844955444 0.5749599933624268 0.04843199998140335
v 0.0010100000072270632 0.5749599933624268 0.055612001568078995
v -0.025794999673962593 0.5749599933624268 0.04843199998140335
v -0.045416999608278275 0.5749599933624268 0.028815999627113342
v -0.05259900167584419 0.5749599933624268 0.002019000006839633
v -0.045416999608278275 0.5749599933624268 -0.0247770007699728
v -0.025794999673962593 0.5749599933624268 -0.04439299926161766
v -0.020092999562621117 0.38495999574661255 0.0142000000923872
v -0.020092999562621117 0.2709600031375885 0.0142000000923872
v -0.020092999562621117 0.2709600031375885 -0.010161000303924084
v -0.020092999562621117 0.38495999574661255 -0.010161000303924084
v 0.0010100000072270632 0.2709600031375885 -0.02234099991619587
v 0.0010100000072270632 0.38495999574661255 -0.02234099991619587
v 0.022112999111413956 0.2709600031375885 -0.010161000303924084
v 0.022112999111413956 0.38495999574661255 -0.010161000303924084
v 0.022112999111413956 0.38495999574661255 -0.010161000303924084
v 0.022112999111413956 0.2709600031375885 -0.010161000303924084
v 0.022112999111413956 0.2709600031375885 0.0142000000923872
v 0.022112999111413956 0.38495999574661255 0.0142000000923872
v 0.0010100000072270632 0.2709600031375885 0.02638000063598156
v 0.0010100000072270632 0.38495999574661255 0.02638000063598156
v 0.0010100000072270632 0.11896000057458878 0.002019000006839633
v 0.0010100000072270632 0.11896000057458878 -0.08345499634742737
v 0.04376000165939331 0.11896000057458878 -0.07200399786233902
v 0.07505500316619873 0.11896000057458878 -0.04071800038218498
v 0.08651000261306763 0.11896000057458878 0.002019000006839633
v 0.07505500316619873 0.11896000057458878 0.04475700110197067
v 0.04376000165939331 0.11896000057458878 0.07604199647903442
v 0.0010100000072270632 0.11896000057458878 0.08749400079250336
v -0.04174000024795532 0.11896000057458878 0.07604199647903442
v -0.07303600013256073 0.11896000057458878 0.04475700110197067
v -0.08449000120162964 0.11896000057458878 0.002019000006839633
v -0.07303600013256073 0.11896000057458878 -0.04071800038218498
v -0.04174000024795532 0.11896000057458878 -0.07200399786233902
v 0.0010100000072270632 0.2709600031375885 0.002019000006839633
v 0.0010100000072270632 0.2709600031375885 -0.04670099914073944
v 0.025376999750733376 0.2709600031375885 -0.04017399996519089
v 0.04321499913930893 0.2709600031375885 -0.02234099991619587
v 0.04974500089883804 0.2709600031375885 0.002019000006839633
v 0.04321499913930893 0.2709600031375885 0.02638000063598156
v 0.025376999750733376 0.2709600031375885 0.04421300068497658
v 0.0010100000072270632 0.2709600031375885 0.05073999986052513
v -0.023358000442385674 0.2709600031375885 0.04421300068497658
v -0.04119599983096123 0.2709600031375885 0.02638000063598156
v -0.047724999487400055 0.2709600031375885 0.002019000006839633
v -0.04119599983096123 0.2709600031375885 -0.02234099991619587
v -0.023358000442385674 0.2709600031375885 -0.04017399996519089
v 0.0010100000072270632 0.38495999574661255 0.002019000006839633
v 0.027814000844955444 0.38495999574661255 -0.04439299926161766
v 0.0010100000072270632 0.38495999574661255 -0.051573000848293304
v 0.04743599891662598 0.38495999574661255 -0.0247770007699728
v 0.054618000984191895 0.38495999574661255 0.002019000006839633
v 0.04743599891662598 0.38495999574661255 0.028815999627113342
v 0.027814000844955444 0.38495999574661255 0.04843199998140335
v 0.0010100000072270632 0.38495999574661255 0.055612001568078995
v -0.025794999673962593 0.38495999574661255 0.04843199998140335
v -0.045416999608278275 0.38495999574661255 0.028815999627113342
v -0.05259900167584419 0.38495999574661255 0.002019000006839633
v -0.045416999608278275 0.38495999574661255 -0.0247770007699728
v -0.025794999673962593 0.38495999574661255 -0.04439299926161766
vt 0.1643349975347519 1
vt 0.2472500056028366 0.8881120085716248
vt 0.2472500056028366 1
vt 0.1643349975347519 0.8881120085716248
vt 0.08250299841165543 0.8881120085716248
vt 0.08250299841165543 1
vt -0.0004990000161342323 1
vt -0.0004990000161342323 0.8881120085716248
vt 0.9099950194358826 0.8881120085716248
vt 0.9969980120658875 0.8881120085716248
vt 0.9969980120658875 1
vt 0.9099950194358826 1
vt 0.8255360126495361 1
vt 0.8255360126495361 0.8881120085716248
vt 0.7417479753494263 0.8881120085716248
vt 0.7417479753494263 1
vt 0.6588320136070251 1
vt 0.6588320136070251 0.8881120085716248
vt 0.5770009756088257 0.8881120085716248
vt 0.5770009756088257 1
vt 0.49399998784065247 1
vt 0.49399998784065247 0.8881120085716248
vt 0.4119960069656372 0.8881120085716248
vt 0.4119960069656372 1
vt 0.32903799414634705 1
vt 0.32903799414634705 0.8881120085716248
vt 0.2472500056028366 0.7164080142974854
vt 0.2472500056028366 0.8881120085716248
vt 0.1643349975347519 0.8881120085716248
vt 0.1643349975347519 0.7164080142974854
vt 0.08250299841165543 0.8881120085716248
vt 0.08250299841165543 0.7164080142974854
vt -0.0004990000161342323 0.8881120085716248
vt -0.0004990000161342323 0.7164080142974854
vt 0.9969980120658875 0.7164080142974854
vt 0.9969980120658875 0.8881120085716248
vt 0.9099950194358826 0.8881120085716248
vt 0.9099950194358826 0.7164080142974854
vt 0.8255360126495361 0.8881120085716248
vt 0.8255360126495361 0.7164080142974854
vt 0.7417479753494263 0.8881120085716248
vt 0.7417479753494263 0.7164080142974854
vt 0.6588320136070251 0.8881120085716248
vt 0.6588320136070251 0.7164080142974854
vt 0.5770009756088257 0.8881120085716248
vt 0.5770009756088257 0.7164080142974854
vt 0.49399998784065247 0.8881120085716248
vt 0.49399998784065247 0.7164080142974854
vt 0.4119960069656372 0.8881120085716248
vt 0.4119960069656372 0.7164080142974854
vt 0.32903799414634705 0.8881120085716248
vt 0.32903799414634705 0.7164080142974854
vt 0.2472500056028366 0.2850000262260437
vt 0.2472500056028366 0.5713800191879272
vt 0.1643349975347519 0.5713800191879272
vt 0.1643349975347519 0.2850000262260437
vt 0.08250299841165543 0.5713800191879272
vt 0.08250299841165543 0.2850000262260437
vt -0.0004990000161342323 0.5713800191879272
vt -0.0004990000161342323 0.2850000262260437
vt 0.9969980120658875 0.2850000262260437
vt 0.9969980120658875 0.5713800191879272
vt 0.9099950194358826 0.5713800191879272
vt 0.9099950194358826 0.2850000262260437
vt 0.8255360126495361 0.5713800191879272
vt 0.8255360126495361 0.2850000262260437
vt 0.7417479753494263 0.5713800191879272
vt 0.7417479753494263 0.2850000262260437
vt 0.6588320136070251 0.5713800191879272
vt 0.6588320136070251 0.2850000262260437
vt 0.5770009756088257 0.5713800191879272
vt 0.5770009756088257 0.2850000262260437
vt 0.49399998784065247 0.5713800191879272
vt 0.49399998784065247 0.2850000262260437
vt 0.4119960069656372 0.5713800191879272
vt 0.4119960069656372 0.2850000262260437
vt 0.32903799414634705 0.5713800191879272
vt 0.32903799414634705 0.2850000262260437
vt 0.373416006565094 0.1007239818572998
vt 0.4621579945087433 0.1007239818572998
vt 0.4503070116043091 0.14467400312423706
vt 0.4179309904575348 0.17651301622390747
vt 0.373416006565094 0.18816697597503662
vt 0.3294770121574402 0.17651301622390747
vt 0.2971000075340271 0.14467400312423706
vt 0.2852500081062317 0.1007239818572998
vt 0.2971000075340271 0.057687997817993164
vt 0.3294770121574402 0.025847971439361572
vt 0.373416006565094 0.014194011688232422
vt 0.4179309904575348 0.025847971439361572
vt 0.4503070116043091 0.057687997817993164
vt 0.49399998784065247 0.5713800191879272
vt 0.49399998784065247 0.7164080142974854
vt 0.32903799414634705 0.7164080142974854
vt 0.32903799414634705 0.5713800191879272
vt 0.1643349975347519 0.7164080142974854
vt 0.1643349975347519 0.5713800191879272
vt -0.0004990000161342323 0.7164080142974854
vt -0.0004990000161342323 0.5713800191879272
vt 0.9969980120658875 0.5713800191879272
vt 0.9969980120658875 0.7164080142974854
vt 0.8255360126495361 0.7164080142974854
vt 0.8255360126495361 0.5713800191879272
vt 0.6588320136070251 0.7164080142974854
vt 0.6588320136070251 0.5713800191879272
vt 0.8470199704170227 0.13138699531555176
vt 0.9610580205917358 0.13138699531555176
vt 0.9457489848136902 0.18832099437713623
vt 0.903922975063324 0.2302749752998352
vt 0.8470199704170227 0.24563199281692505
vt 0.7896519899368286 0.2302749752998352
vt 0.7478259801864624 0.18832099437713623
vt 0.7325170040130615 0.13138699531555176
vt 0.7478259801864624 0.0736989974975586
vt 0.7896519899368286 0.03174400329589844
vt 0.8470199704170227 0.016387999057769775
vt 0.903922975063324 0.03174400329589844
vt 0.9457489848136902 0.0736989974975586
vt 0.15850800275802612 0.1537960171699524
vt 0.2327290028333664 0.1537960171699524
vt 0.2227499932050705 0.19132697582244873
vt 0.19548499584197998 0.2191219925880432
vt 0.15850800275802612 0.2292960286140442
vt 0.12099800258874893 0.2191219925880432
vt 0.0937340036034584 0.19132697582244873
vt 0.08375400304794312 0.1537960171699524
vt 0.0937340036034584 0.11538797616958618
vt 0.12099800258874893 0.08759200572967529
vt 0.15850800275802612 0.07741802930831909
vt 0.19548499584197998 0.08759200572967529
vt 0.2227499932050705 0.11538797616958618
vt 0.5971429944038391 0.17123299837112427
vt 0.6763960123062134 0.12687402963638306
vt 0.6886109709739685 0.17123299837112427
vt 0.6430249810218811 0.09405702352523804
vt 0.5971429944038391 0.08204501867294312
vt 0.5518530011177063 0.09405702352523804
vt 0.5184820294380188 0.12687402963638306
vt 0.5062670111656189 0.17123299837112427
vt 0.5184820294380188 0.21653300523757935
vt 0.5518530011177063 0.24935102462768555
vt 0.5971429944038391 0.26136302947998047
vt 0.6430249810218811 0.24935102462768555
vt 0.6763960123062134 0.21653300523757935
vn 0.4998930096626282 0 -0.8660539984703064
vn 0 0 -1
vn 0 0 -1
vn 0.4998930096626282 0 -0.8660539984703064
vn 0.8659629821777344 0 -0.5000759959220886
vn 0.8659629821777344 0 -0.5000759959220886
vn 1 0 0
vn 1 0 0
vn 0.8659629821777344 0 0.5000759959220886
vn 1 0 0
vn 1 0 0
vn 0.8659629821777344 0 0.5000759959220886
vn 0.4998930096626282 0 0.8660539984703064
vn 0.4998930096626282 0 0.8660539984703064
vn 0 0 1
vn 0 0 1
vn -0.4998930096626282 0 0.8660539984703064
vn -0.4998930096626282 0 0.8660539984703064
vn -0.8659629821777344 0 0.5000759959220886
vn -0.8659629821777344 0 0.5000759959220886
vn -1 0 0
vn -1 0 0
vn -0.8659629821777344 0 -0.5000759959220886
vn -0.8659629821777344 0 -0.5000759959220886
vn -0.4998930096626282 0 -0.8660539984703064
vn -0.4998930096626282 0 -0.8660539984703064
vn 0 0 -1
vn 0 0 -0.9999690055847168
vn 0.4998930096626282 0 -0.8660539984703064
vn 0.4998930096626282 0 -0.8660539984703064
vn 0.8659629821777344 0 -0.5000759959220886
vn 0.8659629821777344 0 -0.5000759959220886
vn 1 0 0
vn 1 0 0
vn 1 0 0
vn 1 0 0
vn 0.8659629821777344 0 0.5000759959220886
vn 0.8659629821777344 0 0.5000759959220886
vn 0.4998930096626282 0 0.8660539984703064
vn 0.4998930096626282 0 0.8660539984703064
vn 0 0 0.9999690055847168
vn 0 0 0.9999690055847168
vn -0.4998930096626282 0 0.8660539984703064
vn -0.4998930096626282 0 0.8660539984703064
vn -0.8659629821777344 0 0.5000759959220886
vn -0.8659629821777344 0 0.5000759959220886
vn -1 0 0
vn -1 0 0
vn -0.8659629821777344 0 -0.5000759959220886
vn -0.8659629821777344 0 -0.5000759959220886
vn -0.4998930096626282 0 -0.8660539984703064
vn -0.4998930096626282 0 -0.8660539984703064
vn 0 0 -0.9999690055847168
vn 0 0 -0.9999690055847168
vn 0.4998930096626282 0 -0.8660539984703064
vn 0.4998930096626282 0 -0.8660539984703064
vn 0.8659629821777344 0 -0.5000759959220886
vn 0.8659629821777344 0 -0.5000759959220886
vn 1 0 0
vn 1 0 0
vn 1 0 0
vn 1 0 0
vn 0.8659629821777344 0 0.5000759959220886
vn 0.8659629821777344 0 0.5000759959220886
vn 0.4998930096626282 0 0.8660539984703064
vn 0.4998930096626282 0 0.8660539984703064
vn 0 0 0.9999690055847168
vn 0 0 0.9999690055847168
vn -0.4998930096626282 0 0.8660539984703064
vn -0.4998930096626282 0 0.8660539984703064
vn -0.8659629821777344 0 0.5000759959220886
vn -0.8659629821777344 0 0.5000759959220886
vn -1 0 0
vn -1 0 0
vn -0.8659629821777344 0 -0.5000759959220886
vn -0.8659629821777344 0 -0.5000759959220886
vn -0.4998930096626282 0 -0.8660539984703064
vn -0.4998930096626282 0 -0.8660539984703064
vn 0 1 0
vn 0 1 0
vn 0 1 0
vn 0 1 0
vn 0 1 0
vn 0 1 0
vn 0 1 0
vn 0 1 0
vn 0 1 0
vn 0 1 0
vn 0 1 0
vn 0 1 0
vn 0 1 0
vn -0.8659629821777344 0 0.5000460147857666
vn -0.8659629821777344 0 0.5000460147857666
vn -0.8659629821777344 0 -0.5000460147857666
vn -0.8659629821777344 0 -0.5000460147857666
vn 0 0 -1
vn 0 0 -1
vn 0.8659629821777344 0 -0.5000460147857666
vn 0.8659629821777344 0 -0.5000460147857666
vn 0.8659629821777344 0 -0.5000460147857666
vn 0.8659629821777344 0 -0.5000460147857666
vn 0.8659629821777344 0 0.5000460147857666
vn 0.8659629821777344 0 0.5000460147857666
vn 0 0 1
vn 0 0 1
vn 0 1 0
vn 0 1 0
vn 0 1 0
vn 0 1 0
vn 0 1 0
vn 0 1 0
vn 0 1 0
vn 0 1 0
vn 0 1 0
vn 0 1 0
vn 0 1 0
vn 0 1 0
vn 0 1 0
vn 0 1 0
vn 0 1 0
vn 0 1 0
vn 0 1 0
vn 0 1 0
vn 0 1 0
vn 0 1 0
vn 0 1 0
vn 0 1 0
vn 0 1 0
vn 0 1 0
vn 0 1 0
vn 0 1 0
vn 0 -1 0
vn 0 -1 0
vn 0 -1 0
vn 0 -1 0
vn 0 -1 0
vn 0 -1 0
vn 0 -1 0
vn 0 -1 0
vn 0 -1 0
vn 0 -1 0
vn 0 -1 0
vn 0 -1 0
vn 0 -1 0
f 32/32/32 34/34/34 33/33/33
f 33/33/33 31/31/31 32/32/32
f 30/30/30 32/32/32 31/31/31
f 31/31/31 29/29/29 30/30/30
f 27/27/27 30/30/30 29/29/29
f 29/29/29 28/28/28 27/27/27
f 52/52/52 27/27/27 28/28/28
f 28/28/28 51/51/51 52/52/52
f 50/50/50 52/52/52 51/51/51
f 51/51/51 49/49/49 50/50/50
f 48/48/48 50/50/50 49/49/49
f 49/49/49 47/47/47 48/48/48
f 46/46/46 48/48/48 47/47/47
f 47/47/47 45/45/45 46/46/46
f 44/44/44 46/46/46 45/45/45
f 45/45/45 43/43/43 44/44/44
f 42/42/42 44/44/44 43/43/43
f 43/43/43 41/41/41 42/42/42
f 40/40/40 42/42/42 41/41/41
f 41/41/41 39/39/39 40/40/40
f 38/38/38 40/40/40 39/39/39
f 39/39/39 37/37/37 38/38/38
f 35/35/35 38/38/38 37/37/37
f 37/37/37 36/36/36 35/35/35
f 3/3/3 2/2/2 1/1/1
f 25/25/25 2/2/2 3/3/3
f 2/2/2 4/4/4 1/1/1
f 25/25/25 26/26/26 2/2/2
f 1/1/1 4/4/4 5/5/5
f 23/23/23 26/26/26 25/25/25
f 1/1/1 5/5/5 6/6/6
f 24/24/24 23/23/23 25/25/25
f 6/6/6 5/5/5 7/7/7
f 5/5/5 8/8/8 7/7/7
f 21/21/21 23/23/23 24/24/24
f 21/21/21 22/22/22 23/23/23
f 19/19/19 22/22/22 21/21/21
f 20/20/20 19/19/19 21/21/21
f 17/17/17 19/19/19 20/20/20
f 17/17/17 18/18/18 19/19/19
f 15/15/15 18/18/18 17/17/17
f 16/16/16 15/15/15 17/17/17
f 13/13/13 15/15/15 16/16/16
f 13/13/13 14/14/14 15/15/15
f 9/9/9 14/14/14 13/13/13
f 12/12/12 9/9/9 13/13/13
f 11/11/11 9/9/9 12/12/12
f 11/11/11 10/10/10 9/9/9
f 55/55/55 54/54/54 53/53/53
f 78/78/78 53/53/53 54/54/54
f 53/53/53 56/56/56 55/55/55
f 54/54/54 77/77/77 78/78/78
f 57/57/57 55/55/55 56/56/56
f 76/76/76 78/78/78 77/77/77
f 56/56/56 58/58/58 57/57/57
f 77/77/77 75/75/75 76/76/76
f 59/59/59 57/57/57 58/58/58
f 58/58/58 60/60/60 59/59/59
f 74/74/74 76/76/76 75/75/75
f 75/75/75 73/73/73 74/74/74
f 72/72/72 74/74/74 73/73/73
f 73/73/73 71/71/71 72/72/72
f 70/70/70 72/72/72 71/71/71
f 71/71/71 69/69/69 70/70/70
f 68/68/68 70/70/70 69/69/69
f 69/69/69 67/67/67 68/68/68
f 66/66/66 68/68/68 67/67/67
f 67/67/67 65/65/65 66/66/66
f 64/64/64 66/66/66 65/65/65
f 65/65/65 63/63/63 64/64/64
f 61/61/61 64/64/64 63/63/63
f 63/63/63 62/62/62 61/61/61
f 81/81/81 80/80/80 79/79/79
f 80/80/80 91/91/91 79/79/79
f 82/82/82 81/81/81 79/79/79
f 91/91/91 90/90/90 79/79/79
f 83/83/83 82/82/82 79/79/79
f 90/90/90 89/89/89 79/79/79
f 84/84/84 83/83/83 79/79/79
f 89/89/89 88/88/88 79/79/79
f 85/85/85 84/84/84 79/79/79
f 88/88/88 87/87/87 79/79/79
f 86/86/86 85/85/85 79/79/79
f 87/87/87 86/86/86 79/79/79
f 94/94/94 93/93/93 92/92/92
f 105/105/105 92/92/92 93/93/93
f 92/92/92 95/95/95 94/94/94
f 93/93/93 104/104/104 105/105/105
f 96/96/96 94/94/94 95/95/95
f 103/103/103 105/105/105 104/104/104
f 95/95/95 97/97/97 96/96/96
f 104/104/104 102/102/102 103/103/103
f 98/98/98 96/96/96 97/97/97
f 97/97/97 99/99/99 98/98/98
f 100/100/100 103/103/103 102/102/102
f 102/102/102 101/101/101 100/100/100
f 108/108/108 107/107/107 106/106/106
f 107/107/107 118/118/118 106/106/106
f 109/109/109 108/108/108 106/106/106
f 118/118/118 117/117/117 106/106/106
f 110/110/110 109/109/109 106/106/106
f 117/117/117 116/116/116 106/106/106
f 111/111/111 110/110/110 106/106/106
f 116/116/116 115/115/115 106/106/106
f 112/112/112 111/111/111 106/106/106
f 115/115/115 114/114/114 106/106/106
f 113/113/113 112/112/112 106/106/106
f 114/114/114 113/113/113 106/106/106
f 121/121/121 120/120/120 119/119/119
f 120/120/120 131/131/131 119/119/119
f 122/122/122 121/121/121 119/119/119
f 131/131/131 130/130/130 119/119/119
f 123/123/123 122/122/122 119/119/119
f 130/130/130 129/129/129 119/119/119
f 124/124/124 123/123/123 119/119/119
f 129/129/129 128/128/128 119/119/119
f 125/125/125 124/124/124 119/119/119
f 128/128/128 127/127/127 119/119/119
f 126/126/126 125/125/125 119/119/119
f 127/127/127 126/126/126 119/119/119
f 134/134/134 133/133/133 132/132/132
f 144/144/144 134/134/134 132/132/132
f 133/133/133 135/135/135 132/132/132
f 143/143/143 144/144/144 132/132/132
f 135/135/135 136/136/136 132/132/132
f 142/142/142 143/143/143 132/132/132
f 136/136/136 137/137/137 132/132/132
f 141/141/141 142/142/142 132/132/132
f 137/137/137 138/138/138 132/132/132
f 140/140/140 141/141/141 132/132/132
f 138/138/138 139/139/139 132/132/132
f 139/139/139 140/140/140 132/132/132
