# VPXTOOL table OBJ file
# VPXTOOL OBJ file
# numVerts: 91 numFaces: 198
o PegPlasticT1Mini2
v 0.04885600134730339 0.040449000895023346 -0.07660499960184097
v 0.0007130000158213079 0.040449000895023346 -0.10248100012540817
v 0.0007130000158213079 0.0025510000996291637 -0.10248100012540817
v 0.0960099995136261 0.040449000895023346 -0.050230998545885086
v 0.0960099995136261 0.0025510000996291637 -0.050230998545885086
v 0.0960099995136261 0.040449000895023346 0.0026130001060664654
v 0.0960099995136261 0.040449000895023346 -0.050230998545885086
v 0.0960099995136261 0.0025510000996291637 -0.050230998545885086
v 0.0960099995136261 0.040449000895023346 0.05426900088787079
v 0.0960099995136261 0.0025510000996291637 0.05426900088787079
v 0.04647799953818321 0.040449000895023346 0.08123800158500671
v 0.0960099995136261 0.040449000895023346 0.05426900088787079
v 0.0960099995136261 0.0025510000996291637 0.05426900088787079
v 0.0007130000158213079 0.040449000895023346 0.10651899874210358
v 0.0007130000158213079 0.0025510000996291637 0.10651899874210358
v -0.04624199867248535 0.040449000895023346 0.08004999905824661
v 0.0007130000158213079 0.040449000895023346 0.10651899874210358
v 0.0007130000158213079 0.0025510000996291637 0.10651899874210358
v -0.09398999810218811 0.040449000895023346 0.05426900088787079
v -0.09398999810218811 0.0025510000996291637 0.05426900088787079
v -0.09398999810218811 0.040449000895023346 0.002019000006839633
v -0.09398999810218811 0.040449000895023346 0.05426900088787079
v -0.09398999810218811 0.0025510000996291637 0.05426900088787079
v -0.09398999810218811 0.040449000895023346 -0.050230998545885086
v -0.09398999810218811 0.0025510000996291637 -0.050230998545885086
v -0.04743000119924545 0.040449000895023346 -0.07601100206375122
v -0.09398999810218811 0.040449000895023346 -0.050230998545885086
v -0.09398999810218811 0.0025510000996291637 -0.050230998545885086
v 0.0007130000158213079 0.040449000895023346 -0.10248100012540817
v 0.0007130000158213079 0.0025510000996291637 -0.10248100012540817
v -0.050992000848054886 0.24956299364566803 -0.026468999683856964
v -0.050992000848054886 0.24956299364566803 0.030587999150156975
v -0.09398999810218811 0.040449000895023346 0.002019000006839633
v -0.04743000119924545 0.040449000895023346 -0.07601100206375122
v 0.0007430000114254653 0.24956299364566803 -0.0549979992210865
v 0.05280299857258797 0.24956299364566803 -0.026468999683856964
v 0.04885600134730339 0.040449000895023346 -0.07660499960184097
v 0.05280299857258797 0.24956299364566803 0.030587999150156975
v 0.05280299857258797 0.24956299364566803 -0.026468999683856964
v 0.0960099995136261 0.040449000895023346 0.0026130001060664654
v 0.0007430000114254653 0.24956299364566803 0.059115998446941376
v 0.04647799953818321 0.040449000895023346 0.08123800158500671
v -0.04624199867248535 0.040449000895023346 0.08004999905824661
v -0.02507000043988228 0.36344900727272034 0.016323000192642212
v -0.02507000043988228 0.24956299364566803 0.016323000192642212
v -0.02507000043988228 0.24956299364566803 -0.012205000035464764
v -0.02507000043988228 0.36344900727272034 -0.012205000035464764
v 0.0007970000151544809 0.24956299364566803 -0.026468999683856964
v 0.0007970000151544809 0.36344900727272034 -0.026468999683856964
v 0.026827000081539154 0.24956299364566803 -0.012205000035464764
v 0.026827000081539154 0.36344900727272034 -0.012205000035464764
v 0.026827000081539154 0.36344900727272034 -0.012205000035464764
v 0.026827000081539154 0.24956299364566803 -0.012205000035464764
v 0.026827000081539154 0.24956299364566803 0.016323000192642212
v 0.026827000081539154 0.36344900727272034 0.016323000192642212
v 0.0007970000151544809 0.24956299364566803 0.030587999150156975
v 0.0007970000151544809 0.36344900727272034 0.030587999150156975
v 0.0008510000188834965 0.4774489998817444 0.0025659999810159206
v -0.050992000848054886 0.36344900727272034 0.030587999150156975
v -0.050992000848054886 0.36344900727272034 -0.026468999683856964
v 0.0007430000114254653 0.36344900727272034 -0.0549979992210865
v 0.05280299857258797 0.36344900727272034 -0.026468999683856964
v 0.05280299857258797 0.36344900727272034 0.030587999150156975
v 0.0007430000114254653 0.36344900727272034 0.059115998446941376
v -0.04624199867248535 0.040449000895023346 0.08004999905824661
v -0.09398999810218811 0.040449000895023346 0.05426900088787079
v -0.09398999810218811 0.040449000895023346 0.002019000006839633
v -0.09398999810218811 0.040449000895023346 -0.050230998545885086
v -0.04743000119924545 0.040449000895023346 -0.07601100206375122
v 0.04885600134730339 0.040449000895023346 -0.07660499960184097
v 0.0007130000158213079 0.040449000895023346 -0.10248100012540817
v 0.04885600134730339 0.040449000895023346 -0.07660499960184097
v 0.0960099995136261 0.040449000895023346 -0.050230998545885086
v 0.0960099995136261 0.040449000895023346 0.0026130001060664654
v 0.0960099995136261 0.040449000895023346 0.05426900088787079
v 0.04647799953818321 0.040449000895023346 0.08123800158500671
v 0.0007130000158213079 0.040449000895023346 0.10651899874210358
v 0.0008510000188834965 0.24956299364566803 0.0025659999810159206
v -0.050992000848054886 0.24956299364566803 0.030587999150156975
v -0.050992000848054886 0.24956299364566803 -0.026468999683856964
v 0.0007430000114254653 0.24956299364566803 -0.0549979992210865
v 0.05280299857258797 0.24956299364566803 -0.026468999683856964
v 0.05280299857258797 0.24956299364566803 0.030587999150156975
v 0.0007430000114254653 0.24956299364566803 0.059115998446941376
v 0.0008510000188834965 0.36344900727272034 0.0025659999810159206
v -0.050992000848054886 0.36344900727272034 -0.026468999683856964
v -0.050992000848054886 0.36344900727272034 0.030587999150156975
v 0.0007430000114254653 0.36344900727272034 -0.0549979992210865
v 0.05280299857258797 0.36344900727272034 -0.026468999683856964
v 0.05280299857258797 0.36344900727272034 0.030587999150156975
v 0.0007430000114254653 0.36344900727272034 0.059115998446941376
vt 0.08886300027370453 0.9308090209960938
vt 0.17454999685287476 0.9308090209960938
vt 0.17454999685287476 0.9959840178489685
vt 0.007472999859601259 0.9308090209960938
vt 0.007472999859601259 0.9959840178489685
vt 0.9085500240325928 0.9308090209960938
vt 0.9880350232124329 0.9308090209960938
vt 0.9880350232124329 0.9959840178489685
vt 0.8310210108757019 0.9308090209960938
vt 0.8310210108757019 0.9959840178489685
vt 0.7456349730491638 0.9308090209960938
vt 0.8310210108757019 0.9308090209960938
vt 0.8310210108757019 0.9959840178489685
vt 0.6639440059661865 0.9308090209960938
vt 0.6639440059661865 0.9959840178489685
vt 0.5794849991798401 0.9308090209960938
vt 0.6639440059661865 0.9308090209960938
vt 0.6639440059661865 0.9959840178489685
vt 0.4977540075778961 0.9308090209960938
vt 0.4977540075778961 0.9959840178489685
vt 0.41924700140953064 0.9308090209960938
vt 0.4977540075778961 0.9308090209960938
vt 0.4977540075778961 0.9959840178489685
vt 0.34073999524116516 0.9308090209960938
vt 0.34073999524116516 0.9959840178489685
vt 0.26073598861694336 0.9308090209960938
vt 0.34073999524116516 0.9308090209960938
vt 0.34073999524116516 0.9959840178489685
vt 0.17454999685287476 0.9308090209960938
vt 0.17454999685287476 0.9959840178489685
vt 0.31537100672721863 0.4964330196380615
vt 0.45998600125312805 0.4964330196380615
vt 0.3877750039100647 0.9238319993019104
vt 0.24174000322818756 0.9238319993019104
vt 0.16272999346256256 0.4964330196380615
vt 0.008995000272989273 0.4964330196380615
vt 0.08365599811077118 0.9238319993019104
vt 0.7685549855232239 0.4964330196380615
vt 0.9136589765548706 0.4964330196380615
vt 0.8401070237159729 0.9238319993019104
vt 0.6137170195579529 0.4964330196380615
vt 0.6895840167999268 0.9238319993019104
vt 0.5358179807662964 0.9238319993019104
vt 0.23427000641822815 0.28846800327301025
vt 0.23427000641822815 0.49276697635650635
vt 0.16210700571537018 0.49276697635650635
vt 0.16210700571537018 0.28846800327301025
vt 0.08572600036859512 0.49276697635650635
vt 0.08572600036859512 0.28846800327301025
vt 0.008938999846577644 0.49276697635650635
vt 0.008938999846577644 0.28846800327301025
vt 0.4596010148525238 0.28846800327301025
vt 0.4596010148525238 0.49276697635650635
vt 0.38743799924850464 0.49276697635650635
vt 0.38743799924850464 0.28846800327301025
vt 0.3106499910354614 0.49276697635650635
vt 0.3106499910354614 0.28846800327301025
vt 0.16353000700473785 0.1400820016860962
vt 0.3175109922885895 0.07051998376846313
vt 0.3175109922885895 0.20964401960372925
vt 0.16385099291801453 0.27920597791671753
vt 0.009228000417351723 0.20964401960372925
vt 0.009228000417351723 0.07051998376846313
vt 0.16385099291801453 0.0009580254554748535
vt 0.5397210121154785 0.12332898378372192
vt 0.6031780242919922 0.004203975200653076
vt 0.7337960004806519 0.004827022552490234
vt 0.8644130229949951 0.004203975200653076
vt 0.9283660054206848 0.12036597728729248
vt 0.9283660054206848 0.3653470277786255
vt 0.995032012462616 0.24035000801086426
vt 0.988319993019104 0.9238319993019104
vt 0.8644130229949951 0.4776660203933716
vt 0.7347880005836487 0.4776660203933716
vt 0.6031780242919922 0.4776660203933716
vt 0.5397210121154785 0.3569149971008301
vt 0.47255998849868774 0.24035000801086426
vt 0.7321599721908569 0.24387598037719727
vt 0.9108390212059021 0.1434270143508911
vt 0.9108390212059021 0.3443250060081482
vt 0.7317879796028137 0.44477397203445435
vt 0.5538539886474609 0.3443250060081482
vt 0.5538539886474609 0.1434270143508911
vt 0.7317879796028137 0.042977988719940186
vt 0.7321599721908569 0.24387598037719727
vt 0.5538539886474609 0.3443250060081482
vt 0.5538539886474609 0.1434270143508911
vt 0.7317879796028137 0.44477397203445435
vt 0.9108390212059021 0.3443250060081482
vt 0.9108390212059021 0.1434270143508911
vt 0.7317879796028137 0.042977988719940186
vn 0.48075801134109497 -0.007354999892413616 -0.8767970204353333
vn 0.4734030067920685 0 -0.8808249831199646
vn 0.47624099254608154 -0.004639000166207552 -0.879269003868103
vn 0.48814401030540466 0 -0.8727380037307739
vn 0.485275000333786 -0.004668999928981066 -0.8743249773979187
vn 1 0 0
vn 1 0 0
vn 1 0 0
vn 1 0 0
vn 0.9999690055847168 0 0
vn 0.4808189868927002 0.0026549999602138996 0.8767970204353333
vn 0.4781639873981476 0 0.8782309889793396
vn 0.4791409969329834 0.0016169999726116657 0.8777120113372803
vn 0.4835349917411804 0 0.8753010034561157
vn 0.48240599036216736 0.0017399999778717756 0.8759120106697083
vn -0.4830769896507263 0.007934999652206898 0.8755149841308594
vn -0.49104300141334534 0 0.8711199760437012
vn -0.4879299998283386 0.005065999925136566 0.872829020023346
vn -0.47508201003074646 0 0.8799099922180176
vn -0.4781950116157532 0.005036000162363052 0.8782309889793396
vn -1 0 0
vn -1 0 0
vn -1 0 0
vn -1 0 0
vn -1 0 0
vn -0.4830769896507263 -0.001281999982893467 -0.8755459785461426
vn -0.484389990568161 0 -0.8748130202293396
vn -0.4838710129261017 -0.0008239999879151583 -0.8751180171966553
vn -0.4817650020122528 0 -0.8762779831886292
vn -0.48225298523902893 -0.0007929999846965075 -0.8760030269622803
vn -0.8405709862709045 0.21118800342082977 -0.4987950026988983
vn -0.8403880000114441 0.20926499366760254 0.4998930096626282
vn -0.991424024105072 0.13040600717067719 0.004730000160634518
vn -0.49360600113868713 0.1269260048866272 -0.8603469729423523
vn -0.0019229999743402004 0.20444299280643463 -0.9788510203361511
vn 0.8398690223693848 0.21237799525260925 -0.4994960129261017
vn 0.4886319935321808 0.1274150013923645 -0.8630939722061157
vn 0.8396250009536743 0.21030299365520477 0.5007169842720032
vn 0.8398690223693848 0.21237799525260925 -0.4994960129261017
vn 0.991362988948822 0.1304669976234436 0.011657999828457832
vn -0.0018919999711215496 0.20233799517154694 0.979308009147644
vn 0.4739220142364502 0.12555299699306488 0.8715479969978333
vn -0.4908289909362793 0.1252480000257492 0.8621780276298523
vn -0.8610489964485168 0 0.5084689855575562
vn -0.8610489964485168 0 0.5084689855575562
vn -0.8610489964485168 0 -0.5084689855575562
vn -0.8610489964485168 0 -0.5084689855575562
vn -0.0013119999784976244 0 -0.9999690055847168
vn -0.0013119999784976244 0 -0.9999690055847168
vn 0.8603780269622803 0 -0.5095980167388916
vn 0.8603780269622803 0 -0.5095980167388916
vn 0.8603780269622803 0 -0.5095980167388916
vn 0.8603780269622803 0 -0.5095980167388916
vn 0.8603780269622803 0 0.5095980167388916
vn 0.8603780269622803 0 0.5095980167388916
vn -0.0013119999784976244 0 0.9999690055847168
vn -0.0013119999784976244 0 0.9999690055847168
vn -0.00024399999529123306 0.9999690055847168 0.0036619999445974827
vn -0.7670829892158508 0.4589979946613312 0.4481950104236603
vn -0.7648550271987915 0.4621109962463379 -0.4487749934196472
vn -0.0012209999840706587 0.45072799921035767 -0.8926360011100769
vn 0.7641220092773438 0.4626910090446472 -0.44941601157188416
vn 0.7663499712944031 0.4595479965209961 0.44883599877357483
vn -0.0012209999840706587 0.444379985332489 0.8958100080490112
vn 0 1 0
vn 0 1 0
vn 0 1 0
vn 0 1 0
vn 0 1 0
vn 0 1 0
vn 0 1 0
vn 0.4886319935321808 0.1274150013923645 -0.8630939722061157
vn 0 1 0
vn 0 1 0
vn 0 1 0
vn 0 1 0
vn 0 0.9999690055847168 0
vn 0 1 0
vn 0 1 0
vn 0 1 0
vn 0 1 0
vn 0 1 0
vn 0 1 0
vn 0 1 0
vn 0 -1 0
vn 0 -1 0
vn 0 -1 0
vn 0 -1 0
vn 0 -1 0
vn 0 -1 0
vn 0 -1 0
f 67/67/67 66/66/66 65/65/65
f 65/65/65 77/77/77 76/76/76
f 69/69/69 68/68/68 67/67/67
f 76/76/76 75/75/75 74/74/74
f 71/71/71 69/69/69 70/70/70
f 74/74/74 73/73/73 70/70/70
f 3/3/3 2/2/2 1/1/1
f 1/1/1 5/5/5 3/3/3
f 5/5/5 1/1/1 4/4/4
f 8/8/8 7/7/7 6/6/6
f 8/8/8 6/6/6 10/10/10
f 10/10/10 6/6/6 9/9/9
f 13/13/13 12/12/12 11/11/11
f 13/13/13 11/11/11 15/15/15
f 15/15/15 11/11/11 14/14/14
f 18/18/18 17/17/17 16/16/16
f 18/18/18 16/16/16 20/20/20
f 20/20/20 16/16/16 19/19/19
f 23/23/23 22/22/22 21/21/21
f 23/23/23 21/21/21 25/25/25
f 25/25/25 21/21/21 24/24/24
f 28/28/28 27/27/27 26/26/26
f 28/28/28 26/26/26 30/30/30
f 30/30/30 26/26/26 29/29/29
f 33/33/33 32/32/32 31/31/31
f 31/31/31 34/34/34 33/33/33
f 32/32/32 33/33/33 43/43/43
f 31/31/31 35/35/35 34/34/34
f 43/43/43 41/41/41 32/32/32
f 37/37/37 34/34/34 35/35/35
f 37/37/37 35/35/35 36/36/36
f 41/41/41 43/43/43 42/42/42
f 42/42/42 38/38/38 41/41/41
f 38/38/38 42/42/42 40/40/40
f 40/40/40 39/39/39 38/38/38
f 39/39/39 40/40/40 72/72/72
f 46/46/46 45/45/45 44/44/44
f 57/57/57 44/44/44 45/45/45
f 44/44/44 47/47/47 46/46/46
f 45/45/45 56/56/56 57/57/57
f 48/48/48 46/46/46 47/47/47
f 55/55/55 57/57/57 56/56/56
f 47/47/47 49/49/49 48/48/48
f 56/56/56 54/54/54 55/55/55
f 50/50/50 48/48/48 49/49/49
f 49/49/49 51/51/51 50/50/50
f 52/52/52 55/55/55 54/54/54
f 54/54/54 53/53/53 52/52/52
f 60/60/60 59/59/59 58/58/58
f 59/59/59 64/64/64 58/58/58
f 61/61/61 60/60/60 58/58/58
f 64/64/64 63/63/63 58/58/58
f 62/62/62 61/61/61 58/58/58
f 63/63/63 62/62/62 58/58/58
f 80/80/80 79/79/79 78/78/78
f 79/79/79 84/84/84 78/78/78
f 81/81/81 80/80/80 78/78/78
f 84/84/84 83/83/83 78/78/78
f 82/82/82 81/81/81 78/78/78
f 83/83/83 82/82/82 78/78/78
f 87/87/87 86/86/86 85/85/85
f 91/91/91 87/87/87 85/85/85
f 86/86/86 88/88/88 85/85/85
f 90/90/90 91/91/91 85/85/85
f 88/88/88 89/89/89 85/85/85
f 89/89/89 90/90/90 85/85/85
