# VPXTOOL table OBJ file
# VPXTOOL OBJ file
# numVerts: 153 numFaces: 432
o Primitive24
v -0 2.299999952316284 -0.25600001215934753
v -0 2.2200000286102295 -0.25600001215934753
v 0.0979669988155365 2.2200000286102295 -0.23651300370693207
v 0.0979669988155365 2.299999952316284 -0.23651300370693207
v 0.18101899325847626 2.2200000286102295 -0.18101899325847626
v 0.18101899325847626 2.299999952316284 -0.18101899325847626
v 0.23651300370693207 2.2200000286102295 -0.0979669988155365
v 0.23651300370693207 2.299999952316284 -0.0979669988155365
v 0.25600001215934753 2.2200000286102295 0
v 0.25600001215934753 2.299999952316284 0
v 0.25600001215934753 2.299999952316284 0
v 0.25600001215934753 2.2200000286102295 0
v 0.23651300370693207 2.2200000286102295 0.0979669988155365
v 0.23651300370693207 2.299999952316284 0.0979669988155365
v 0.18101899325847626 2.2200000286102295 0.18101899325847626
v 0.18101899325847626 2.299999952316284 0.18101899325847626
v 0.0979669988155365 2.2200000286102295 0.23651300370693207
v 0.0979669988155365 2.299999952316284 0.23651300370693207
v -0 2.2200000286102295 0.25600001215934753
v -0 2.299999952316284 0.25600001215934753
v -0.0979669988155365 2.2200000286102295 0.23651300370693207
v -0.0979669988155365 2.299999952316284 0.23651300370693207
v -0.18101899325847626 2.2200000286102295 0.18101899325847626
v -0.18101899325847626 2.299999952316284 0.18101899325847626
v -0.23651300370693207 2.2200000286102295 0.0979669988155365
v -0.23651300370693207 2.299999952316284 0.0979669988155365
v -0.25600001215934753 2.2200000286102295 0
v -0.25600001215934753 2.299999952316284 0
v -0.23651300370693207 2.2200000286102295 -0.0979669988155365
v -0.23651300370693207 2.299999952316284 -0.0979669988155365
v -0.18101899325847626 2.2200000286102295 -0.18101899325847626
v -0.18101899325847626 2.299999952316284 -0.18101899325847626
v -0.0979669988155365 2.2200000286102295 -0.23651300370693207
v -0.0979669988155365 2.299999952316284 -0.23651300370693207
v -0 2.299999952316284 0
v -0 2.299999952316284 -0.25600001215934753
v 0.0979669988155365 2.299999952316284 -0.23651300370693207
v 0.18101899325847626 2.299999952316284 -0.18101899325847626
v 0.23651300370693207 2.299999952316284 -0.0979669988155365
v 0.25600001215934753 2.299999952316284 0
v 0.23651300370693207 2.299999952316284 0.0979669988155365
v 0.18101899325847626 2.299999952316284 0.18101899325847626
v 0.0979669988155365 2.299999952316284 0.23651300370693207
v -0 2.299999952316284 0.25600001215934753
v -0.0979669988155365 2.299999952316284 0.23651300370693207
v -0.18101899325847626 2.299999952316284 0.18101899325847626
v -0.23651300370693207 2.299999952316284 0.0979669988155365
v -0.25600001215934753 2.299999952316284 0
v -0.23651300370693207 2.299999952316284 -0.0979669988155365
v -0.18101899325847626 2.299999952316284 -0.18101899325847626
v -0.0979669988155365 2.299999952316284 -0.23651300370693207
v -0 0.2199999988079071 -0.37599998712539673
v -0 -0.019999999552965164 -0.37599998712539673
v 0.14388899505138397 -0.019999999552965164 -0.34737899899482727
v 0.14388899505138397 0.2199999988079071 -0.34737899899482727
v 0.2658720016479492 -0.019999999552965164 -0.2658720016479492
v 0.2658720016479492 0.2199999988079071 -0.2658720016479492
v 0.34737899899482727 -0.019999999552965164 -0.14388899505138397
v 0.34737899899482727 0.2199999988079071 -0.14388899505138397
v 0.37599998712539673 -0.019999999552965164 0
v 0.37599998712539673 0.2199999988079071 0
v 0.37599998712539673 0.2199999988079071 0
v 0.37599998712539673 -0.019999999552965164 0
v 0.34737899899482727 -0.019999999552965164 0.14388899505138397
v 0.34737899899482727 0.2199999988079071 0.14388899505138397
v 0.2658720016479492 -0.019999999552965164 0.2658720016479492
v 0.2658720016479492 0.2199999988079071 0.2658720016479492
v 0.14388899505138397 -0.019999999552965164 0.34737899899482727
v 0.14388899505138397 0.2199999988079071 0.34737899899482727
v -0 -0.019999999552965164 0.37599998712539673
v -0 0.2199999988079071 0.37599998712539673
v -0.14388899505138397 -0.019999999552965164 0.34737899899482727
v -0.14388899505138397 0.2199999988079071 0.34737899899482727
v -0.2658720016479492 -0.019999999552965164 0.2658720016479492
v -0.2658720016479492 0.2199999988079071 0.2658720016479492
v -0.34737899899482727 -0.019999999552965164 0.14388899505138397
v -0.34737899899482727 0.2199999988079071 0.14388899505138397
v -0.37599998712539673 -0.019999999552965164 0
v -0.37599998712539673 0.2199999988079071 0
v -0.34737899899482727 -0.019999999552965164 -0.14388899505138397
v -0.34737899899482727 0.2199999988079071 -0.14388899505138397
v -0.2658720016479492 -0.019999999552965164 -0.2658720016479492
v -0.2658720016479492 0.2199999988079071 -0.2658720016479492
v -0.14388899505138397 -0.019999999552965164 -0.34737899899482727
v -0.14388899505138397 0.2199999988079071 -0.34737899899482727
v -0 2.2200000286102295 -0.4399999976158142
v -0 0.2199999988079071 -0.4399999976158142
v 0.168381005525589 0.2199999988079071 -0.4065069854259491
v 0.168381005525589 2.2200000286102295 -0.4065069854259491
v 0.3111270070075989 0.2199999988079071 -0.3111270070075989
v 0.3111270070075989 2.2200000286102295 -0.3111270070075989
v 0.4065069854259491 0.2199999988079071 -0.168381005525589
v 0.4065069854259491 2.2200000286102295 -0.168381005525589
v 0.4399999976158142 0.2199999988079071 0
v 0.4399999976158142 2.2200000286102295 0
v 0.4399999976158142 2.2200000286102295 0
v 0.4399999976158142 0.2199999988079071 0
v 0.4065069854259491 0.2199999988079071 0.168381005525589
v 0.4065069854259491 2.2200000286102295 0.168381005525589
v 0.3111270070075989 0.2199999988079071 0.3111270070075989
v 0.3111270070075989 2.2200000286102295 0.3111270070075989
v 0.168381005525589 0.2199999988079071 0.4065069854259491
v 0.168381005525589 2.2200000286102295 0.4065069854259491
v -0 0.2199999988079071 0.4399999976158142
v -0 2.2200000286102295 0.4399999976158142
v -0.168381005525589 0.2199999988079071 0.4065069854259491
v -0.168381005525589 2.2200000286102295 0.4065069854259491
v -0.3111270070075989 0.2199999988079071 0.3111270070075989
v -0.3111270070075989 2.2200000286102295 0.3111270070075989
v -0.4065069854259491 0.2199999988079071 0.168381005525589
v -0.4065069854259491 2.2200000286102295 0.168381005525589
v -0.4399999976158142 0.2199999988079071 0
v -0.4399999976158142 2.2200000286102295 0
v -0.4065069854259491 0.2199999988079071 -0.168381005525589
v -0.4065069854259491 2.2200000286102295 -0.168381005525589
v -0.3111270070075989 0.2199999988079071 -0.3111270070075989
v -0.3111270070075989 2.2200000286102295 -0.3111270070075989
v -0.168381005525589 0.2199999988079071 -0.4065069854259491
v -0.168381005525589 2.2200000286102295 -0.4065069854259491
v -0 2.2200000286102295 0
v -0 2.2200000286102295 -0.4399999976158142
v 0.168381005525589 2.2200000286102295 -0.4065069854259491
v 0.3111270070075989 2.2200000286102295 -0.3111270070075989
v 0.4065069854259491 2.2200000286102295 -0.168381005525589
v 0.4399999976158142 2.2200000286102295 0
v 0.4065069854259491 2.2200000286102295 0.168381005525589
v 0.3111270070075989 2.2200000286102295 0.3111270070075989
v 0.168381005525589 2.2200000286102295 0.4065069854259491
v -0 2.2200000286102295 0.4399999976158142
v -0.168381005525589 2.2200000286102295 0.4065069854259491
v -0.3111270070075989 2.2200000286102295 0.3111270070075989
v -0.4065069854259491 2.2200000286102295 0.168381005525589
v -0.4399999976158142 2.2200000286102295 0
v -0.4065069854259491 2.2200000286102295 -0.168381005525589
v -0.3111270070075989 2.2200000286102295 -0.3111270070075989
v -0.168381005525589 2.2200000286102295 -0.4065069854259491
v -0 0.2199999988079071 0
v 0.168381005525589 0.2199999988079071 -0.4065069854259491
v -0 0.2199999988079071 -0.4399999976158142
v 0.3111270070075989 0.2199999988079071 -0.3111270070075989
v 0.4065069854259491 0.2199999988079071 -0.168381005525589
v 0.4399999976158142 0.2199999988079071 0
v 0.4065069854259491 0.2199999988079071 0.168381005525589
v 0.3111270070075989 0.2199999988079071 0.3111270070075989
v 0.168381005525589 0.2199999988079071 0.4065069854259491
v -0 0.2199999988079071 0.4399999976158142
v -0.168381005525589 0.2199999988079071 0.4065069854259491
v -0.3111270070075989 0.2199999988079071 0.3111270070075989
v -0.4065069854259491 0.2199999988079071 0.168381005525589
v -0.4399999976158142 0.2199999988079071 0
v -0.4065069854259491 0.2199999988079071 -0.168381005525589
v -0.3111270070075989 0.2199999988079071 -0.3111270070075989
v -0.168381005525589 0.2199999988079071 -0.4065069854259491
vt 0.25 0.3349999785423279
vt 0.25 0.36333298683166504
vt 0.1875 0.36333298683166504
vt 0.1875 0.3349999785423279
vt 0.125 0.36333298683166504
vt 0.125 0.3349999785423279
vt 0.0625 0.36333298683166504
vt 0.0625 0.3349999785423279
vt 0 0.36333298683166504
vt 0 0.3349999785423279
vt 1 0.3349999785423279
vt 1 0.36333298683166504
vt 0.9375 0.36333298683166504
vt 0.9375 0.3349999785423279
vt 0.875 0.36333298683166504
vt 0.875 0.3349999785423279
vt 0.8125 0.36333298683166504
vt 0.8125 0.3349999785423279
vt 0.75 0.36333298683166504
vt 0.75 0.3349999785423279
vt 0.6875 0.36333298683166504
vt 0.6875 0.3349999785423279
vt 0.625 0.36333298683166504
vt 0.625 0.3349999785423279
vt 0.5625 0.36333298683166504
vt 0.5625 0.3349999785423279
vt 0.5 0.36333298683166504
vt 0.5 0.3349999785423279
vt 0.4375 0.36333298683166504
vt 0.4375 0.3349999785423279
vt 0.375 0.36333298683166504
vt 0.375 0.3349999785423279
vt 0.3125 0.36333298683166504
vt 0.3125 0.3349999785423279
vt 0.8346220254898071 0.16112202405929565
vt 0.9779319763183594 0.16112202405929565
vt 0.9670230150222778 0.21596401929855347
vt 0.9359570145606995 0.262457013130188
vt 0.8894640207290649 0.29352301359176636
vt 0.8346220254898071 0.3044310212135315
vt 0.7797799706459045 0.29352301359176636
vt 0.73328697681427 0.262457013130188
vt 0.7022219896316528 0.21596401929855347
vt 0.6913130283355713 0.16112202405929565
vt 0.7022219896316528 0.10628002882003784
vt 0.73328697681427 0.059786975383758545
vt 0.7797799706459045 0.028720974922180176
vt 0.8346220254898071 0.017812013626098633
vt 0.8894640207290649 0.028720974922180176
vt 0.9359570145606995 0.059786975383758545
vt 0.9670230150222778 0.10628002882003784
vt 0.25 0.9629999995231628
vt 0.25 1
vt 0.1875 1
vt 0.1875 0.9629999995231628
vt 0.125 1
vt 0.125 0.9629999995231628
vt 0.0625 1
vt 0.0625 0.9629999995231628
vt 0 1
vt 0 0.9629999995231628
vt 1 0.9629999995231628
vt 1 1
vt 0.9375 1
vt 0.9375 0.9629999995231628
vt 0.875 1
vt 0.875 0.9629999995231628
vt 0.8125 1
vt 0.8125 0.9629999995231628
vt 0.75 1
vt 0.75 0.9629999995231628
vt 0.6875 1
vt 0.6875 0.9629999995231628
vt 0.625 1
vt 0.625 0.9629999995231628
vt 0.5625 1
vt 0.5625 0.9629999995231628
vt 0.5 1
vt 0.5 0.9629999995231628
vt 0.4375 1
vt 0.4375 0.9629999995231628
vt 0.375 1
vt 0.375 0.9629999995231628
vt 0.3125 1
vt 0.3125 0.9629999995231628
vt 0.25 0.37733298540115356
vt 0.25 0.9490000009536743
vt 0.1875 0.9490000009536743
vt 0.1875 0.37733298540115356
vt 0.125 0.9490000009536743
vt 0.125 0.37733298540115356
vt 0.0625 0.9490000009536743
vt 0.0625 0.37733298540115356
vt 0 0.9490000009536743
vt 0 0.37733298540115356
vt 1 0.37733298540115356
vt 1 0.9490000009536743
vt 0.9375 0.9490000009536743
vt 0.9375 0.37733298540115356
vt 0.875 0.9490000009536743
vt 0.875 0.37733298540115356
vt 0.8125 0.9490000009536743
vt 0.8125 0.37733298540115356
vt 0.75 0.9490000009536743
vt 0.75 0.37733298540115356
vt 0.6875 0.9490000009536743
vt 0.6875 0.37733298540115356
vt 0.625 0.9490000009536743
vt 0.625 0.37733298540115356
vt 0.5625 0.9490000009536743
vt 0.5625 0.37733298540115356
vt 0.5 0.9490000009536743
vt 0.5 0.37733298540115356
vt 0.4375 0.9490000009536743
vt 0.4375 0.37733298540115356
vt 0.375 0.9490000009536743
vt 0.375 0.37733298540115356
vt 0.3125 0.9490000009536743
vt 0.3125 0.37733298540115356
vt 0.49462199211120605 0.16112202405929565
vt 0.6475629806518555 0.16112202405929565
vt 0.6359210014343262 0.21964997053146362
vt 0.6027680039405823 0.2692670226097107
vt 0.5531499981880188 0.302420973777771
vt 0.49462199211120605 0.31406301259994507
vt 0.4360939860343933 0.302420973777771
vt 0.386476993560791 0.2692670226097107
vt 0.3533230125904083 0.21964997053146362
vt 0.34168100357055664 0.16112202405929565
vt 0.3533230125904083 0.10259401798248291
vt 0.386476993560791 0.052976012229919434
vt 0.4360939860343933 0.019822001457214355
vt 0.49462199211120605 0.008180022239685059
vt 0.5531499981880188 0.019822001457214355
vt 0.6027680039405823 0.052976012229919434
vt 0.6359210014343262 0.10259401798248291
vt 0.15962199866771698 0.16074001789093018
vt 0.3009209930896759 0.10221201181411743
vt 0.3125630021095276 0.16074001789093018
vt 0.267767995595932 0.052594006061553955
vt 0.21815000474452972 0.019439995288848877
vt 0.15962199866771698 0.00779801607131958
vt 0.10109400004148483 0.019439995288848877
vt 0.05147700011730194 0.052594006061553955
vt 0.018323000520467758 0.10221201181411743
vt 0.006680999882519245 0.16074001789093018
vt 0.018323000520467758 0.21926802396774292
vt 0.05147700011730194 0.2688850164413452
vt 0.10109400004148483 0.3020390272140503
vt 0.15962199866771698 0.3136810064315796
vt 0.21815000474452972 0.3020390272140503
vt 0.267767995595932 0.2688850164413452
vt 0.3009209930896759 0.21926802396774292
vn 0 0 -1
vn 0 0 -1
vn 0.3826720118522644 0 -0.9238560199737549
vn 0.3826720118522644 0 -0.9238560199737549
vn 0.707082986831665 0 -0.707082986831665
vn 0.707082986831665 0 -0.707082986831665
vn 0.9238560199737549 0 -0.3826720118522644
vn 0.9238560199737549 0 -0.3826720118522644
vn 1 0 0
vn 1 0 0
vn 1 0 0
vn 1 0 0
vn 0.9238560199737549 0 0.3826720118522644
vn 0.9238560199737549 0 0.3826720118522644
vn 0.707082986831665 0 0.707082986831665
vn 0.707082986831665 0 0.707082986831665
vn 0.3826720118522644 0 0.9238560199737549
vn 0.3826720118522644 0 0.9238560199737549
vn 0 0 1
vn 0 0 1
vn -0.3826720118522644 0 0.9238560199737549
vn -0.3826720118522644 0 0.9238560199737549
vn -0.707082986831665 0 0.707082986831665
vn -0.707082986831665 0 0.707082986831665
vn -0.9238560199737549 0 0.3826720118522644
vn -0.9238560199737549 0 0.3826720118522644
vn -1 0 0
vn -1 0 0
vn -0.9238560199737549 0 -0.3826720118522644
vn -0.9238560199737549 0 -0.3826720118522644
vn -0.707082986831665 0 -0.707082986831665
vn -0.707082986831665 0 -0.707082986831665
vn -0.3826720118522644 0 -0.9238560199737549
vn -0.3826720118522644 0 -0.9238560199737549
vn 0 1 0
vn 0 1 0
vn 0 1 0
vn 0 1 0
vn 0 1 0
vn 0 1 0
vn 0 1 0
vn 0 1 0
vn 0 1 0
vn 0 1 0
vn 0 1 0
vn 0 1 0
vn 0 1 0
vn 0 1 0
vn 0 1 0
vn 0 1 0
vn 0 1 0
vn 0 0 -1
vn 0 0 -1
vn 0.3826720118522644 0 -0.9238560199737549
vn 0.3826720118522644 0 -0.9238560199737549
vn 0.707082986831665 0 -0.707082986831665
vn 0.707082986831665 0 -0.707082986831665
vn 0.9238560199737549 0 -0.3826720118522644
vn 0.9238560199737549 0 -0.3826720118522644
vn 1 0 0
vn 1 0 0
vn 1 0 0
vn 1 0 0
vn 0.9238560199737549 0 0.3826720118522644
vn 0.9238560199737549 0 0.3826720118522644
vn 0.707082986831665 0 0.707082986831665
vn 0.707082986831665 0 0.707082986831665
vn 0.3826720118522644 0 0.9238560199737549
vn 0.3826720118522644 0 0.9238560199737549
vn 0 0 1
vn 0 0 1
vn -0.3826720118522644 0 0.9238560199737549
vn -0.3826720118522644 0 0.9238560199737549
vn -0.707082986831665 0 0.707082986831665
vn -0.707082986831665 0 0.707082986831665
vn -0.9238560199737549 0 0.3826720118522644
vn -0.9238560199737549 0 0.3826720118522644
vn -1 0 0
vn -1 0 0
vn -0.9238560199737549 0 -0.3826720118522644
vn -0.9238560199737549 0 -0.3826720118522644
vn -0.707082986831665 0 -0.707082986831665
vn -0.707082986831665 0 -0.707082986831665
vn -0.3826720118522644 0 -0.9238560199737549
vn -0.3826720118522644 0 -0.9238560199737549
vn 0 0 -1
vn 0 0 -1
vn 0.3826720118522644 0 -0.9238560199737549
vn 0.3826720118522644 0 -0.9238560199737549
vn 0.707082986831665 0 -0.707082986831665
vn 0.707082986831665 0 -0.707082986831665
vn 0.9238560199737549 0 -0.3826720118522644
vn 0.9238560199737549 0 -0.3826720118522644
vn 1 0 0
vn 1 0 0
vn 1 0 0
vn 1 0 0
vn 0.9238560199737549 0 0.3826720118522644
vn 0.9238560199737549 0 0.3826720118522644
vn 0.707082986831665 0 0.707082986831665
vn 0.707082986831665 0 0.707082986831665
vn 0.3826720118522644 0 0.9238560199737549
vn 0.3826720118522644 0 0.9238560199737549
vn 0 0 1
vn 0 0 1
vn -0.3826720118522644 0 0.9238560199737549
vn -0.3826720118522644 0 0.9238560199737549
vn -0.707082986831665 0 0.707082986831665
vn -0.707082986831665 0 0.707082986831665
vn -0.9238560199737549 0 0.3826720118522644
vn -0.9238560199737549 0 0.3826720118522644
vn -1 0 0
vn -1 0 0
vn -0.9238560199737549 0 -0.3826720118522644
vn -0.9238560199737549 0 -0.3826720118522644
vn -0.707082986831665 0 -0.707082986831665
vn -0.707082986831665 0 -0.707082986831665
vn -0.3826720118522644 0 -0.9238560199737549
vn -0.3826720118522644 0 -0.9238560199737549
vn 0 1 0
vn 0 1 0
vn 0 1 0
vn 0 1 0
vn 0 1 0
vn 0 1 0
vn 0 1 0
vn 0 1 0
vn 0 1 0
vn 0 1 0
vn 0 1 0
vn 0 1 0
vn 0 1 0
vn 0 1 0
vn 0 1 0
vn 0 1 0
vn 0 1 0
vn 0 -1 0
vn 0 -1 0
vn 0 -1 0
vn 0 -1 0
vn 0 -1 0
vn 0 -1 0
vn 0 -1 0
vn 0 -1 0
vn 0 -1 0
vn 0 -1 0
vn 0 -1 0
vn 0 -1 0
vn 0 -1 0
vn 0 -1 0
vn 0 -1 0
vn 0 -1 0
vn 0 -1 0
f 8/8/8 10/10/10 9/9/9
f 9/9/9 7/7/7 8/8/8
f 6/6/6 8/8/8 7/7/7
f 7/7/7 5/5/5 6/6/6
f 4/4/4 6/6/6 5/5/5
f 5/5/5 3/3/3 4/4/4
f 1/1/1 4/4/4 3/3/3
f 3/3/3 2/2/2 1/1/1
f 34/34/34 1/1/1 2/2/2
f 2/2/2 33/33/33 34/34/34
f 32/32/32 34/34/34 33/33/33
f 33/33/33 31/31/31 32/32/32
f 30/30/30 32/32/32 31/31/31
f 31/31/31 29/29/29 30/30/30
f 28/28/28 30/30/30 29/29/29
f 29/29/29 27/27/27 28/28/28
f 26/26/26 28/28/28 27/27/27
f 27/27/27 25/25/25 26/26/26
f 24/24/24 26/26/26 25/25/25
f 25/25/25 23/23/23 24/24/24
f 22/22/22 24/24/24 23/23/23
f 23/23/23 21/21/21 22/22/22
f 20/20/20 22/22/22 21/21/21
f 21/21/21 19/19/19 20/20/20
f 18/18/18 20/20/20 19/19/19
f 19/19/19 17/17/17 18/18/18
f 16/16/16 18/18/18 17/17/17
f 17/17/17 15/15/15 16/16/16
f 14/14/14 16/16/16 15/15/15
f 15/15/15 13/13/13 14/14/14
f 11/11/11 14/14/14 13/13/13
f 13/13/13 12/12/12 11/11/11
f 37/37/37 36/36/36 35/35/35
f 36/36/36 51/51/51 35/35/35
f 38/38/38 37/37/37 35/35/35
f 51/51/51 50/50/50 35/35/35
f 39/39/39 38/38/38 35/35/35
f 50/50/50 49/49/49 35/35/35
f 40/40/40 39/39/39 35/35/35
f 49/49/49 48/48/48 35/35/35
f 41/41/41 40/40/40 35/35/35
f 48/48/48 47/47/47 35/35/35
f 42/42/42 41/41/41 35/35/35
f 47/47/47 46/46/46 35/35/35
f 43/43/43 42/42/42 35/35/35
f 46/46/46 45/45/45 35/35/35
f 44/44/44 43/43/43 35/35/35
f 45/45/45 44/44/44 35/35/35
f 54/54/54 53/53/53 52/52/52
f 85/85/85 52/52/52 53/53/53
f 52/52/52 55/55/55 54/54/54
f 53/53/53 84/84/84 85/85/85
f 56/56/56 54/54/54 55/55/55
f 83/83/83 85/85/85 84/84/84
f 55/55/55 57/57/57 56/56/56
f 84/84/84 82/82/82 83/83/83
f 58/58/58 56/56/56 57/57/57
f 81/81/81 83/83/83 82/82/82
f 57/57/57 59/59/59 58/58/58
f 82/82/82 80/80/80 81/81/81
f 60/60/60 58/58/58 59/59/59
f 59/59/59 61/61/61 60/60/60
f 79/79/79 81/81/81 80/80/80
f 80/80/80 78/78/78 79/79/79
f 77/77/77 79/79/79 78/78/78
f 78/78/78 76/76/76 77/77/77
f 75/75/75 77/77/77 76/76/76
f 76/76/76 74/74/74 75/75/75
f 73/73/73 75/75/75 74/74/74
f 74/74/74 72/72/72 73/73/73
f 71/71/71 73/73/73 72/72/72
f 72/72/72 70/70/70 71/71/71
f 69/69/69 71/71/71 70/70/70
f 70/70/70 68/68/68 69/69/69
f 67/67/67 69/69/69 68/68/68
f 68/68/68 66/66/66 67/67/67
f 65/65/65 67/67/67 66/66/66
f 66/66/66 64/64/64 65/65/65
f 62/62/62 65/65/65 64/64/64
f 64/64/64 63/63/63 62/62/62
f 88/88/88 87/87/87 86/86/86
f 119/119/119 86/86/86 87/87/87
f 86/86/86 89/89/89 88/88/88
f 87/87/87 118/118/118 119/119/119
f 90/90/90 88/88/88 89/89/89
f 117/117/117 119/119/119 118/118/118
f 89/89/89 91/91/91 90/90/90
f 118/118/118 116/116/116 117/117/117
f 92/92/92 90/90/90 91/91/91
f 115/115/115 117/117/117 116/116/116
f 91/91/91 93/93/93 92/92/92
f 116/116/116 114/114/114 115/115/115
f 94/94/94 92/92/92 93/93/93
f 93/93/93 95/95/95 94/94/94
f 113/113/113 115/115/115 114/114/114
f 114/114/114 112/112/112 113/113/113
f 111/111/111 113/113/113 112/112/112
f 112/112/112 110/110/110 111/111/111
f 109/109/109 111/111/111 110/110/110
f 110/110/110 108/108/108 109/109/109
f 107/107/107 109/109/109 108/108/108
f 108/108/108 106/106/106 107/107/107
f 105/105/105 107/107/107 106/106/106
f 106/106/106 104/104/104 105/105/105
f 103/103/103 105/105/105 104/104/104
f 104/104/104 102/102/102 103/103/103
f 101/101/101 103/103/103 102/102/102
f 102/102/102 100/100/100 101/101/101
f 99/99/99 101/101/101 100/100/100
f 100/100/100 98/98/98 99/99/99
f 96/96/96 99/99/99 98/98/98
f 98/98/98 97/97/97 96/96/96
f 122/122/122 121/121/121 120/120/120
f 121/121/121 136/136/136 120/120/120
f 123/123/123 122/122/122 120/120/120
f 136/136/136 135/135/135 120/120/120
f 124/124/124 123/123/123 120/120/120
f 135/135/135 134/134/134 120/120/120
f 125/125/125 124/124/124 120/120/120
f 134/134/134 133/133/133 120/120/120
f 126/126/126 125/125/125 120/120/120
f 133/133/133 132/132/132 120/120/120
f 127/127/127 126/126/126 120/120/120
f 132/132/132 131/131/131 120/120/120
f 128/128/128 127/127/127 120/120/120
f 131/131/131 130/130/130 120/120/120
f 129/129/129 128/128/128 120/120/120
f 130/130/130 129/129/129 120/120/120
f 139/139/139 138/138/138 137/137/137
f 153/153/153 139/139/139 137/137/137
f 138/138/138 140/140/140 137/137/137
f 152/152/152 153/153/153 137/137/137
f 140/140/140 141/141/141 137/137/137
f 151/151/151 152/152/152 137/137/137
f 141/141/141 142/142/142 137/137/137
f 150/150/150 151/151/151 137/137/137
f 142/142/142 143/143/143 137/137/137
f 149/149/149 150/150/150 137/137/137
f 143/143/143 144/144/144 137/137/137
f 148/148/148 149/149/149 137/137/137
f 144/144/144 145/145/145 137/137/137
f 147/147/147 148/148/148 137/137/137
f 145/145/145 146/146/146 137/137/137
f 146/146/146 147/147/147 137/137/137
