# VPXTOOL table OBJ file
# VPXTOOL OBJ file
# numVerts: 16 numFaces: 24
o Primitive52
v 9.765999794006348 2.755000114440918 0
v 9.765999794006348 0 0
v 0 0 0
v 9.765999794006348 1.23499596118927 21.850000381469727
v 0 1.23499596118927 21.850000381469727
v 0 -0.000003999999989900971 21.849998474121094
v 0 1.23499596118927 21.850000381469727
v 0 2.755000114440918 0
v 0 0 0
v 9.765999794006348 2.755000114440918 0
v 9.765999794006348 -0.000003999999989900971 21.849998474121094
v 9.765999794006348 0 0
v 0 2.755000114440918 0
v 9.765999794006348 -0.000003999999989900971 21.849998474121094
v 0 -0.000003999999989900971 21.849998474121094
v 9.765999794006348 1.23499596118927 21.850000381469727
vt 0.5788229703903198 0.9793609976768494
vt 0.4596930146217346 0.9789959788322449
vt 0.46098798513412476 0.5566999912261963
vt 0.581413984298706 0.9793609976768494
vt 0.5801190137863159 0.5570659637451172
vt 0.6335219740867615 0.5569019913673401
vt 0.27773499488830566 0.03433501720428467
vt 0.34056299924850464 0.9793609976768494
vt 0.22143299877643585 0.9789950251579285
vt 0.34056299924850464 0.9793609976768494
vt 0.45679399371147156 0.034171998500823975
vt 0.4596930146217346 0.9789950251579285
vt 0.5801180005073547 0.5570659637451172
vt 0.6348170042037964 0.9791970252990723
vt 0.22433100640773773 0.03417098522186279
vt 0.4033910036087036 0.03433501720428467
vn 0 -0 1
vn 0 -0 1
vn 0 -0 1
vn 0 0.0000019999999949504854 -1
vn 0 0.0000019999999949504854 -1
vn 0 0.0000019999999949504854 -1
vn 1 0 0
vn 1 0 0
vn 1 0 0
vn -1 -0 -0
vn -1 -0 -0
vn -1 -0 -0
vn 0 -0 1
vn 0 0.0000019999999949504854 -1
vn 1 0 0
vn -1 -0 -0
f 3/3/3 2/2/2 1/1/1
f 13/13/13 3/3/3 1/1/1
f 6/6/6 5/5/5 4/4/4
f 14/14/14 6/6/6 4/4/4
f 9/9/9 8/8/8 7/7/7
f 15/15/15 9/9/9 7/7/7
f 12/12/12 11/11/11 10/10/10
f 11/11/11 16/16/16 10/10/10
